<?xml version="1.0" encoding="UTF-8"?>
<svg id="b" data-name="Layer 2" xmlns="http://www.w3.org/2000/svg" width="658.018" height="654.49" viewBox="0 0 658.018 654.49">
  <defs>
    <style>
      .d {
        fill: #f8f8cd;
      }
    </style>
  </defs>
  <g id="c" data-name="Layer 1">
    <path class="d" d="M657.342,505.03c1.31-19.31.31-38.36.33-57.72-.39-8.02-1-18.81-.56-26.94.74-15.72.71-31.25.7-46.79.04-4.31-1.16-8.34-1.11-12.41,1.05-16.1.09-32.14.27-48.38.05-3.25.98-6.45.56-9.62l-.02-.18c-.28-2.6-1.39-5.13-1.64-8.08-.28-6.18.34-12.75.67-18.99,1.56-61.74.98-123.57.15-185.25-.45-20,.87-39.94-.56-59.83-.34-4.56-.2-9.01.29-13.52.19-4.01-1.15-7.63.34-11.4,2.84-6.42-4.93-5.67-9.26-5.92-25.41,2.49-50.99-.18-76.46,2.17-38.63-.41-77.37-1.52-115.98-.08-4.25-.05-9.43-.53-13.9-.2-3.54.24-6.58.83-9.77.86-8.66-.29-17.11-1.6-25.67-.56-16.47.66-33.22-.02-49.77-.32-30.77-.24-62.63-2.27-93.9-.36-6.11.57-12.74.05-18.65-.36-4.35.12-8.65-.09-12.97-.22-4.96.37-9.79.77-14.72.12-4.53-.18-8.63.73-12.99.55-5.02.23-10.54,1.4-15.44.94-4.22-.34-8.55.23-12.71-.32-5.19-1.39-10.27-1.32-15.69-.46-19.48,1.55-39.24,1.22-58.68,1.21-5.19-.07-10.39-.55-15.56-.57-3.85.01-8.11.54-11.72.41-6.41.12-13.71-.28-20.21-.97-13.16-.68-26.44-.81-39.63-1.04-4.89.04-7.09,3.3-7.22,8.07-.59,5.51.21,11.2.46,16.67.2,5.42-.19,10.83-.45,16.25-.51,13.22-1.1,26.36-1.66,39.49-.46,4.32-1.65,8.99-1.39,13.45.25,9.55,2.32,19.12.12,28.49-.32,2.61-.06,4.94.29,7.58.33,4.29.21,8.87.11,13.21-.31,6.96-1.52,14.38-1.07,21.54.38,5.7,2.28,11.01,1.81,16.73-.92,33.47.51,66.63-.46,99.9.09,11.87.83,24.03.02,35.87-.32,4.51-2,8.78-1.85,13.34,1.48,13.46,2.24,27.1,2.66,40.59.2,5.24,1.24,10.57.96,15.84-.31,5.52-3.49,10.76-3.61,16.45-.08,13,3.05,26.22,1.13,39.15-.8,5.46-1.74,11.11-1.53,16.52-.36,6.81,2.32,14.06,1.48,20.94-.91,4.38-1.63,8.57-1.04,13.14.33,3.41.58,6.98.18,10.46-1.92,16.38,1.58,32.95.89,49.43-.21,5.6-3.43,9.74-2.84,15.17,1.35,27.04.37,55.14,1.51,82.02,1.53,1.67,5.79.85,8.2.94,8.47-.06,17.2.6,25.88.61,152.02.05,303.52,3.35,455.52.99,41.71.83,82.68.87,124.07.14,11.21-.57,29.06.46,37.28-1.28,1.29-.7,1.24-2.45,1.27-5.03-.02-2.18.11-4.34.4-6.52,1.81-15.26-2.29-31.44.55-46.52,1.13-5.45,1.19-11.05.73-16.58-.42-7.83.38-15.87,1.45-23.87.84-7.42-.75-15.19.18-22.59.71-8.9.23-17.48.26-26.33l-.03-.03Z"/>
  </g>
</svg>