<?xml version="1.0" encoding="UTF-8"?>
<svg id="Layer_2" data-name="Layer 2" xmlns="http://www.w3.org/2000/svg" viewBox="0 0 577.59 161.26">
  <defs>
    <style>
      .cls-1 {
        fill: none;
      }

      .cls-2 {
        stroke: #010101;
        stroke-miterlimit: 10;
        stroke-width: .22px;
      }

      .cls-2, .cls-3 {
        fill: #231f20;
      }

      .cls-4 {
        fill: #010101;
      }

      .cls-5 {
        fill: #faf8cf;
      }
    </style>
  </defs>
  <g id="Layer_1-2" data-name="Layer 1">
    <g>
      <g>
        <path class="cls-5" d="M574.81,72.15c-.12-.33-.15-.64-.13-.92-.14-.44-.27-.88-.4-1.29-.63-2.09-1.1-4.27-1.86-6.31-1.04-2.78-2.99-4.94-5.21-6.85-2.19-1.89-4.6-3.52-6.63-5.59-2.34-2.38-3.73-5.09-4.66-8.27-.6-2.04-1.06-3.88-2.23-5.68-1.19-1.83-2.36-3.66-3.4-5.58-2-3.68-4.12-7.3-6.07-11.01-1.84-3.49-3.66-6.92-5.77-10.26-1.25-1.98-2.46-3.97-3.56-6.03-.06,0-.11,0-.17-.01-1.66-.23-3.25.53-4.53,1.53-.87.67-1.97.92-2.9.34-.03.02-.06.03-.09.05.12.82-.35,1.75-1.42,1.74-.65,0-1.27.04-1.87.13-3.56,2.02-7.16,4-10.79,5.93-1.37,1.04-2.75,2.06-4.23,2.89-3.05,1.71-6.42,2.89-9.64,4.24-.21.09-.42.19-.63.27-1.36.67-2.73,1.33-4.1,1.98-2.08,1.08-4.14,2.21-6.26,3.24-6.77,3.26-13.93,5.64-20.72,8.92-3.4,1.64-6.8,3.3-10.36,4.57-3.29,1.17-25.71,10.96-33.18,12.88-4.51,1.16-9.24,1.64-13.81,2.58-4.77.98-9.51,2.07-14.25,3.19-.63.15-1.13-.08-1.46-.47-35.88,8.24-72.47,12.29-109.31,12.03-42.3-.29-84.23-6.22-125.05-17.66-1.54-.23-3.09-.44-4.65-.72-6.27-1.14-12.16-3.64-18.12-5.78-2.93-1.05-5.9-2.03-8.93-2.71-2.85-.64-5.67-1.08-8.42-2.09-5.47-2.01-10.42-5.13-15.48-8.01-4.64-1.94-9.24-3.95-13.81-6.02-.43-.11-.86-.21-1.3-.3-.5-.1-.81-.39-.96-.73-.2-.09-.4-.18-.6-.27-1.51-.41-3.02-.82-4.51-1.33-2.42-.82-4.49-2.18-6.61-3.57-1.09-.71-2.19-1.42-3.37-1.97-1.41-.65-2.94-.88-4.39-1.43-2.23-.85-4.12-2.19-6.07-3.54-1.94-1.35-4.02-2.32-6.07-3.45-2.19-1.21-4.38-2.75-6.86-3.31-.83-.19-1.13-.86-1.06-1.51-.9-.06-1.81-.12-2.71-.1-1.07.02-1.96.21-2.71.58-.47,1.25-1.04,2.48-1.68,3.69-.74,1.7-1.58,3.35-2.48,4.97-2.55,4.64-5.43,9.11-8.41,13.49-2.51,3.7-5.09,7.38-7.91,10.85-2.08,2.57-3.93,5.5-5.67,8.39-2.13,3.52-4.09,7.14-6.05,10.76-2.76,5.12-5.53,10.24-8.71,15.09.16,3.25,1.14,6,2.94,8.62,2.73,1.21,5.03,3.02,7.48,4.76,1.65.92,3.32,1.84,4.98,2.74,1.7.76,3.44,1.44,5.16,2.22,7.26,3.29,14.17,7.28,21.35,10.73,3.58,1.72,7.3,3.01,10.72,5.08,3.3,2,6.39,3.32,10.25,3.89,3.91.58,7.28,1.47,10.77,3.36,3.3,1.78,6.41,3.92,9.85,5.43,3.37.01,6.4,1.32,9.29,2.97,2.2,1.25,4.28,2.47,6.5,3.48.17.06.34.12.51.18,1.92.67,3.83,1.32,5.75,1.97,2.55.72,5.1,1.45,7.55,2.48,12.62,4.06,25.34,7.67,38.15,10.82,2.71-.04,5.48-.21,8.09.4,3.22.75,6.01,2.85,9.35,3.13.55.05.94.34,1.17.72,36.87,7.77,74.37,11.82,112.13,12.07,1.27,0,2.54.01,3.82.01,36.99,0,73.74-3.64,109.93-10.85-.1-.81.38-1.71,1.43-1.72,7.59-.07,14.72-2.77,22.08-4.3,3.49-.73,6.98-1.46,10.36-2.62,3.11-1.07,6.1-2.2,9.32-2.94,3.2-.74,6.46-1.36,9.54-2.53,3.16-1.2,6.2-2.6,9.44-3.6,3.36-1.04,6.77-1.91,10.14-2.92,3.08-.93,5.82-2.28,8.7-3.68,2.27-1.1,4.56-1.85,7.04-2.08.24-.31.61-.52,1.13-.51,4.11.07,7.7-2.19,11.23-4.03,3.36-1.74,6.85-3.19,10.35-4.63,3.45-1.42,6.91-2.83,10.25-4.5,3.21-1.6,5.92-3.7,8.86-5.72,5.36-3.68,11.9-4.59,18-6.48,1.3-.4,2.61-.79,3.93-1.19,8.59-4.48,17.06-9.16,25.37-14.05.74-2.56.35-5.31-.66-8.26h0Z"/>
        <g>
          <path class="cls-4" d="M441.53,48.6l-3.14,1.1c.08.04.88-.21,3.14-1.1Z"/>
          <path class="cls-4" d="M330.74,155.26c.26-.03.55-.07.78-.1-.55.06-.73.08-.78.1Z"/>
          <path class="cls-4" d="M314.33,66.53c.07,0,.12,0,.17,0,.27-.03.6-.06.85-.09l-1.02.1Z"/>
          <path class="cls-4" d="M476.91,28.57c-2.3.92-4.53,1.81-6.67,2.73-2.14.91-4.22,1.9-6.09,2.79-1.9.89-3.71,1.71-5.46,2.41-.88.35-1.72.67-2.6.98-.25.09-.49.18-.74.27-.23.09-.46.18-.68.27-.44.18-.89.35-1.32.52-6.9,2.77-12.92,5.21-18.85,7.45-2.96,1.11-5.91,2.21-8.85,3.15-.36.12-.73.23-1.1.35-.35.1-.7.2-1.06.29-.71.2-1.47.36-2.23.52-1.53.31-3.13.58-4.81.85s-3.43.53-5.26.86c-1.88.33-3.65.76-5.54,1.17-1.88.42-3.82.85-5.83,1.3-1.01.23-2.03.46-3.07.69-.52.12-1.05.23-1.58.35l.36,1.61.02.1c0,.07,0,.12,0,.16,0,.09-.01.13-.01.14-.01.02.05-.12.17-.21l4.88-3.82-6.87,1.55c-2,.45-4.12.93-6.35,1.43-2.23.47-4.57.98-7.01,1.49-10.71,2.1-21.84,3.95-32.96,5.4-11.12,1.46-22.23,2.49-32.88,3.13-.63.07-1.29.13-1.98.2-.69.05-1.41.11-2.15.16-1.48.1-3.05.2-4.7.29-3.29.12-6.85.26-10.47.28-1.81.03-3.64.05-5.45.04-1.81,0-3.61,0-5.37,0-3.52-.04-6.89,0-9.89,0l-4.64-.46c-4.13-.03-8.99-.15-13.12-.62l.27-.07c-6.18-.16-13.1-.94-16.16-1.14l.27-.06c-1.25-.12-2.49-.22-3.73-.36l-3.73-.41,1.29.02c-10.72-.97-21.71-2.62-31.31-4.49l.73.51c-5.13-1.05-9.43-1.93-13.31-2.73-3.86-.85-7.31-1.52-10.66-2.3-1.68-.38-3.35-.74-5.04-1.15-1.68-.42-3.4-.85-5.2-1.3-1.8-.44-3.65-.98-5.63-1.54-.99-.28-2.01-.58-3.06-.89l-.4-.12-.28-.08c-.12-.04-.23-.06-.35-.08-.29-.05-.59-.11-.89-.16-.55-.1-1.12-.2-1.69-.31l.27-.05c-.73-.08-1.46-.17-2.17-.25-.68-.1-1.35-.21-2.02-.35-1.33-.26-2.62-.59-3.89-.94-2.54-.72-4.96-1.59-7.32-2.47-4.73-1.76-9.27-3.59-14.17-4.75-2.4-.57-4.69-1.01-6.77-1.72-1.01-.34-2.12-.81-3.19-1.28-1.08-.48-2.17-1.01-3.28-1.58-2.21-1.14-4.49-2.43-6.93-3.8-.62-.34-1.24-.68-1.87-1.03l-.48-.26-.35-.19-.42-.18c-.33-.14-.67-.27-1.01-.41-1.36-.54-2.74-1.1-4.18-1.66,2.86,1.12-1.13-.7-.86-.68-1.67-.71-3.35-1.42-5-2.13-.92-.39-1.83-.77-2.72-1.15-.52-.12-1.04-.23-1.56-.34l-.19.83-.03.11c-.02.07-.04.12-.06.17-.04.1-.08.16-.11.2-.06.08-.04.03.06-.01l2.1-.87-2.19-.96c-.27-.12-.54-.23-.8-.35-.28-.08-.56-.16-.83-.23-.41-.11-.81-.23-1.21-.33-.79-.21-1.56-.42-2.28-.62l-.27-.07-.23-.08c-.15-.04-.3-.1-.45-.16-.3-.11-.59-.22-.86-.34-.56-.23-1.08-.48-1.56-.72-1.93-.98-3.25-1.71-3.43-1.52-.87-.58-1.67-1.08-2.39-1.48-.36-.2-.7-.38-1.02-.54-.34-.16-.66-.3-.94-.41-1.12-.43-1.71-.59-2.07-.74-.7-.29-.56-.38-.97-.66-.03.15-1.49-.14-3.6-1.38-.53-.31-1.1-.67-1.7-1.07-.31-.2-.62-.41-.93-.63-.35-.23-.7-.47-1.06-.68-1.45-.89-2.99-1.64-4.39-2.39.88.42,1.79.85,2.71,1.31-1.03-.56-2.05-1.08-3.03-1.6-.96-.51-1.89-1.07-2.93-1.65-1.03-.58-2.13-1.16-3.36-1.6-.31-.11-.63-.21-.95-.3l-.49-.12h-.06s-.03-.02-.03-.02h0s-.01.05,0,.03v.02s-.02.09-.04.14c-.03.09-.05.16-.08.22-.11.25-.2.25-.1.2.09-.05.31-.08.43-.07l-1.54-2.07-2.62-.08c-.22,0-.43,0-.73.01-.31.02-.63.06-.94.11-.62.1-1.22.28-1.78.52.88-.27,1.81-.36,2.69-.31.43.02.71.08,1.03.15l.95.19c-.59-.03-1.1-.07-1.59-.08-.23,0-.57.01-.83.04-.27.03-.54.06-.78.11-.49.09-.9.22-1.25.35-.35.14-.7.23-.86.43-.42.93-.68,1.41-.9,1.75-.17.23-.28.33-.44.58-.16.23-.37.59-.74,1.27-.05.09-.15.28-.2.41-.04.1-.09.2-.14.31-.1.22-.22.47-.34.74-.26.55-.57,1.21-.97,2l.5.12c-1.57,2.95-3.18,5.52-4.76,7.89-1.58,2.36-3.15,4.53-4.74,6.66-1.6,2.13-3.2,4.23-4.94,6.4-.87,1.08-1.77,2.18-2.73,3.3-.24.28-.48.56-.73.84-.25.29-.53.62-.79.94-.53.64-1.05,1.31-1.56,2-1.03,1.46-1.98,2.95-2.9,4.43-.91,1.48-1.82,2.99-2.69,4.51-1.74,3.04-3.39,6.11-5.03,9.17-1.64,3.05-3.29,6.09-5.04,9.04-.44.74-.88,1.48-1.33,2.2l-1.83,2.84c-.08.07-.04.18-.04.27l.02.28.04.56.1,1.12.06.42c.02.12.04.25.06.37.04.25.08.5.14.74.2.99.49,1.97.86,2.92.37.94.82,1.86,1.33,2.72.1.18.32.52.51.82.19.3.41.62.61.93l.08.12s.08.04.12.06l.25.12.51.24c.17.08.34.16.5.24l.28.14c1.38.71,2.74,1.62,4.15,2.62l1.07.76.55.39.34.24c.14.11.35.2.44.26l2.32,1.26,2.32,1.26c.13.08.33.18.46.22l.31.13.61.26,1.21.51c3.27,1.33,6.34,2.78,9.47,4.34,3.11,1.55,6.21,3.17,9.34,4.76,1.57.79,3.14,1.58,4.74,2.34,1.6.78,3.27,1.49,4.85,2.17,1.6.68,3.14,1.35,4.6,2.09.36.19.72.38,1.08.58.18.1.35.2.52.3l.55.32c.78.46,1.58.9,2.41,1.31,1.64.82,3.4,1.52,5.21,2,.9.24,1.82.43,2.73.58l1.26.2c.41.07.81.14,1.21.21,1.6.31,3.14.71,4.62,1.25.74.27,1.46.57,2.17.91.7.34,1.4.71,2.12,1.12,1.43.81,2.86,1.68,4.35,2.55.74.43,1.5.86,2.27,1.27.39.2.78.4,1.18.6l.63.3.91.41c.08.05.16.04.24.04h.25s.5.02.5.02c.1,0,.14,0,.18,0h.13s.26.03.26.03c.35.04.7.09,1.06.15.7.13,1.4.33,2.09.58,1.39.5,2.76,1.19,4.12,1.98,1.42.82,2.86,1.67,4.36,2.47.38.2.75.4,1.13.59l.58.28c.21.1.34.17.69.32.8.29,1.6.57,2.4.86.78.27,1.55.55,2.32.82.78.27,1.51.57,2.36.8,1.53.46,3.01.92,4.44,1.45.63.35,1.24.72,1.83,1.1,0,.01.02.03.04.04.04.02.08.04.12.07.08.05.2.1.31.15.17.08.33.14.55.22.43.16,1.01.33,1.68.52,1.35.38,3.09.82,4.87,1.26,3.55.87,7.23,1.73,8.1,2.25l5.79,1.4c1.58.55,4.96,1.58,2.07.91,5.31,1.48,5.46,1.41,9.34,2.25l2.82.9,1.41.44.7.22.35.11.19.06.31.09.27.07c.09.03.18.05.27.04h1.26c.42-.01.83-.02,1.25-.02.82,0,1.6,0,2.35.04s1.47.11,2.14.23c.68.12,1.26.28,1.93.52,1.33.47,2.77,1.2,4.47,1.84.85.31,1.77.6,2.77.78.25.04.5.09.75.12l.39.04h.07s.01,0,.01,0c.04-.38-.07.85.08-.85h0v-.08s.02-.09.03-.12c.03-.14.07-.19.06-.17s-.07.08-.16.14l-1.98,1.17,2.84.57c6.87,1.38,13.67,2.59,20.69,3.74,7.02,1.12,14.26,2.19,22.01,3.27,6.78,1.07,15.11,2.12,24.25,2.96s19.1,1.45,29.14,1.76c10.04.31,20.16.3,29.62.04,9.46-.25,18.26-.75,25.68-1.3,11.93-1,24.4-2.11,37.09-3.65,12.7-1.5,25.61-3.42,38.43-5.78l1.23-2.61c.08,0-.03.01-.17-.06-.07-.03-.13-.07-.17-.11-.03-.03-.04-.04-.02-.02.02.04.04.1.08.24,0,.05.02.16.02.23v.67h.21l.98-.02c.65-.01,1.29-.06,1.94-.1.64-.07,1.29-.11,1.92-.2,2.54-.31,5.01-.82,7.4-1.39,2.39-.56,4.72-1.18,7.01-1.72,1.15-.28,2.27-.52,3.42-.76,1.17-.24,2.36-.48,3.56-.75,2.38-.53,4.81-1.16,7.16-1.99,2.26-.79,4.42-1.59,6.56-2.23,1.08-.32,2.09-.58,3.23-.85,1.12-.27,2.27-.53,3.42-.83,1.16-.29,2.33-.63,3.49-1.01.59-.2,1.17-.4,1.75-.63.56-.22,1.1-.45,1.64-.67.67-.23,1.83-.72,2.79-1.16.48-.22.92-.42,1.23-.57.31-.15.51-.24.49-.26,1.17-.45,2.32-.86,3.51-1.21,1.21-.37,2.43-.71,3.67-1.06l3.74-1.04c1.25-.36,2.5-.7,3.84-1.16,2.61-.9,5.03-2.07,7.35-3.19,2.19-1.08,4.33-1.8,6.56-2l2.59-.24-1.72-1.29c-.15-.11-.08-.16-.02.16.01.08.02.17.02.28v.02h0s0,.56,0,.56h.9c.81-.07,1.62-.16,2.39-.34,1.56-.33,2.97-.89,4.3-1.49,0,0,.18-.08.52-.24.34-.16.84-.41,1.46-.73.6-.32,1.34-.71,2.2-1.17.83-.44,1.77-.92,2.85-1.43,2.15-1.03,4.8-2.15,7.84-3.41,3.03-1.26,6.46-2.64,10.04-4.42,1.85-.9,3.69-2.04,5.4-3.22.86-.59,1.71-1.2,2.55-1.8.42-.3.84-.59,1.26-.89l.31-.22.3-.19.59-.39c3.23-2,7.2-3.15,11.32-4.26,1.03-.28,2.07-.56,3.12-.86,1.05-.3,2.11-.64,3.1-.94.5-.16,1-.31,1.5-.47l.75-.23.46-.14c.1-.03.2-.06.3-.1l.28-.15c.94-.51,1.88-1.02,2.81-1.51,3.62-1.97,7.08-3.91,10.27-5.75,3.19-1.84,6.11-3.59,8.65-5.16.64-.4,1.26-.78,1.85-1.15.41-.26.81-.52,1.2-.77.2-.12.39-.25.57-.37l.28-.18c.05-.09.06-.22.09-.33.1-.45.2-.88.27-1.31.07-.43.11-.86.13-1.24.03-.66-.01-1.27-.08-1.83-.13-1.13-.37-2.06-.62-2.8-.24-.74-.48-1.31-.68-1.71-.39-.78-.59-.87-.53-.24.03.33.12.84.23,1.57.11.73.25,1.68.28,2.86,0,.59,0,1.24-.1,1.93-.04.35-.11.7-.2,1.06-.04.18-.1.36-.15.54-.03.09-.06.18-.09.27l-.04.14s-.08.05-.13.08c-1.45.74-3.12,1.59-5.01,2.55-3.83,1.95-8.59,4.37-14.44,7.23-1.46.71-2.99,1.45-4.59,2.23-.4.19-.81.39-1.21.58-.24.11-.33.17-.47.2-.09.02-.37.1-.59.15-.9.24-1.82.48-2.75.73-1.84.51-3.75.94-5.8,1.4-2.04.47-4.2.98-6.44,1.69l.91-.44c-2.65.84-5.21,1.91-7.47,3.37l-.43.27-.39.26c-.25.17-.51.35-.76.51-.49.34-.98.67-1.46,1.01-.96.66-1.88,1.28-2.79,1.86-.91.58-1.8,1.1-2.7,1.57-.44.23-.9.46-1.37.68-.47.22-.94.44-1.4.65-1.86.85-3.69,1.63-5.5,2.38-3.62,1.52-7.1,2.95-10.47,4.63-1.68.83-3.35,1.79-4.88,2.66-1.55.87-3.05,1.67-4.6,2.19-.33-.03-.89.05-1.6.09-.18.02-.37.03-.56.03-.2,0-.4.01-.62,0-.11,0-.21,0-.32,0-.27,0-.62.01-.96.09-.7.15-1.45.61-1.92,1.23l1.5-.83c-1.56.13-3.31.51-5,1.13-.85.31-1.68.67-2.48,1.06-.75.37-1.5.74-2.23,1.1-1.44.71-2.81,1.34-4.03,1.81-.61.23-1.18.44-1.69.6-.26.08-.5.15-.74.22-.24.06-.47.12-.68.18l.43-.19c-3.03,1.06-6.23,1.92-9.47,2.9-3.34.99-6.49,2.35-9.54,3.46-2.92,1.1-6.04,1.65-9.28,2.38-1.65.36-3.32.84-4.88,1.37-1.57.53-3.06,1.11-4.52,1.68.45-.21.6-.5,3.38-1.46-1.09.39-2.22.8-3.38,1.21-.58.21-1.12.4-1.68.59-.56.18-1.12.36-1.69.52-2.28.66-4.63,1.17-6.75,1.62-2.17.44-4.1.9-5.48,1.21-1.39.31-2.29.47-2.48.41-2.64.7-5.36,1.41-8.14,1.9-1.39.25-2.79.43-4.2.53-.35.03-.7.05-1.06.06l-.53.02h-.27s-.27.02-.27.02c-.12,0-.23.01-.36.04-.49.07-1.03.25-1.51.55-.48.3-.9.71-1.19,1.16-.59.91-.76,1.88-.65,2.82l2.04-2.81c-9.01,1.81-18.39,3.44-26.82,4.77-8.43,1.33-15.9,2.35-21.07,3.2l.94-.23c-1.96.34-3.59.56-5.05.75-1.47.19-2.78.33-4.12.44-1.34.12-2.71.24-4.3.38-1.59.15-3.4.3-5.61.54-.49-.02-1.12,0-1.02-.03-2.15.28-4.81.51-7.69.74-2.88.19-5.99.39-9.05.51-1.53.06-3.05.12-4.51.18-1.47.04-2.89.08-4.23.12-2.68.09-5.04.14-6.79.22l-.46-.27c-5.75.12-11.51.17-17.27.1,2.15.05,4.3.1,6.46.12-2.25.77-13.06-.51-25.58-.63-11.69-.67-23.87.14-35.97-1.63-5.82-.3,5.16-.01-3.51-.72-.23-.44,4.06.2,1.88-.37-2.12-.19-4.05-.43-5.91-.7-1.86-.27-3.65-.53-5.49-.84-1.85-.31-3.76-.61-5.86-.94-2.1-.34-4.38-.66-6.99-1.01l-.37-.39c-9.97-1.17-18.94-3.33-26.54-4.96l1.25.88c-.39-.67-1.12-1.25-1.89-1.49-.19-.06-.38-.1-.57-.13l-.33-.04c-.14-.02-.27-.03-.41-.05-.55-.08-1.11-.23-1.68-.4-1.13-.35-2.28-.84-3.48-1.27-.85-.35-1.68-.66-2.48-.9-.81-.24-1.57-.4-2.26-.5-1.37-.21-2.48-.26-3.42-.31-.92-.04-1.68-.07-2.38-.1-.17,0-.34-.02-.5-.03-.08,0-.16,0-.24-.01-.07,0-.18,0-.2-.01-.08-.01-.15-.02-.22-.04-.07-.03-.1-.05-.2-.09-2.32-.78-4.73-1.5-11.92-3.11l-5.4-1.94c-3.02-.89-4.14-1.08-5.33-1.31-1.2-.23-2.47-.5-5.78-1.61.48-.12-8.36-2.82-4.38-1.84-.94-.32-1.87-.63-2.81-.95-.47-.16-.94-.31-1.41-.47l-.16-.05s-.03,0-.04-.02l-.31-.13-.75-.3c-2-.78-4.03-1.37-6.01-1.92-.27-.08-.43-.12-.67-.19l-.72-.24c-.48-.16-.96-.32-1.45-.48-.97-.32-1.94-.64-2.92-.96l-.74-.24c-.17-.06-.14-.04-.18-.06l-.29-.13c-.45-.2-.9-.42-1.35-.64-.9-.45-1.82-.94-2.76-1.45-.94-.51-1.87-1.05-2.94-1.61-1.06-.54-2.17-1.06-3.37-1.49-1.2-.44-2.48-.78-3.83-.98-.34-.04-.68-.09-1.02-.11l-.47-.03h-.12c-.08,0-.14-.06-.23-.09-.23-.11-.49-.23-.73-.35-1.97-.98-3.96-2.24-6.13-3.55-1.08-.65-2.2-1.32-3.46-1.97-1.25-.63-2.55-1.19-3.91-1.66-1.22-.25-2.83-.59-4.58-.85-.83-.12-1.71-.24-2.59-.37-.8-.13-1.6-.31-2.38-.54-1.56-.45-3.04-1.09-4.32-1.72-.64-.32-1.23-.63-1.75-.9-.29-.15-.55-.28-.8-.41-.25-.13-.49-.23-.7-.32-.1-.12-1.39-.86-3.09-1.66-1.7-.81-3.78-1.68-5.4-2.44-.41-.19-.79-.38-1.13-.55-.35-.18-.68-.35-.96-.49-.55-.29-.93-.51-1.04-.59-.11-.08.05-.04.58.17.51.21,1.39.58,2.71,1.13.9.37,2.53,1.08,2.39,1.11l1.43.28c-1.32-.64-2.62-1.26-3.88-1.88-1.25-.63-2.47-1.24-3.68-1.84-2.44-1.23-4.85-2.43-7.28-3.61-2.43-1.19-4.89-2.36-7.43-3.54-1.27-.59-2.57-1.17-3.89-1.76-1.32-.56-2.64-1.12-3.99-1.72,1.59.75,3.45,1.54,4.56,2.1,1.11.55,1.44.76-.04.19-1.68-.78-3.36-1.47-5.04-2.22l-.63-.27-.23-.1-.21-.12-1.19-.66-2.38-1.33,2.11.86-1.77-1-.88-.5-.21-.12s-.04-.02-.05-.03l-.31-.23c-1.08-.79-2.19-1.63-3.4-2.44-.6-.41-1.23-.81-1.88-1.19-.33-.19-.66-.38-1-.56l-.37-.19c-.05-.04-.06-.08-.12-.17l-.13-.23c-.07-.12-.14-.25-.2-.37-.27-.5-.5-1.01-.69-1.53.12.61.29,1.22.51,1.83-.79-1.51-1.15-2.85-1.32-4.11-.02-.16-.04-.31-.05-.47l-.02-.23v-.12s0-.05,0-.05c0-.07.02-.14.03-.2.02-.06.09-.1.13-.14.01-.01.02-.02.04-.04l.16-.22.31-.45c1.63-2.4,3.18-5,5.17-9.09,1.76-3.72-4.07,6.46-.06-1.02,2.69-4.66,5.83-10.49,9.6-16.28.94-1.45,1.9-2.87,2.92-4.23.26-.34.51-.67.78-1l.81-.99c.59-.71,1.17-1.43,1.73-2.15,2.27-2.89,4.36-5.83,6.3-8.65-1.03.85,1.08-2.18,3.09-5.44l.51-.2c1.83-3.07,2.91-4.95,3.65-6.18.74-1.23,1.15-1.8,1.55-2.34.39-.55.78-1.06,1.42-2.21.16-.29.33-.62.52-1,.09-.2.19-.4.3-.62.09-.2.19-.42.29-.65.1-.2.21-.4.32-.62.14-.28.29-.59.44-.91.08-.16.15-.33.23-.51.04-.08.08-.17.12-.26v-.02s.01-.06.02-.09c0-.03.03-.04.05-.06,0,.07.02.12.07.18l.03.04-.03-.04c-.07-.1-.08-.21-.04-.33.02-.06.05-.11.1-.17.14-.07.46-.1.72-.14.72,0,1.38-.02,1.98-.02l-2.45-2.97c-.09.81.05,1.7.51,2.49.23.39.53.74.86,1.02.33.27.68.47,1.02.61.16.06.33.13.48.16.11.03.21.05.31.08.09.02.18.04.27.06.18.05.34.09.51.15.65.21,1.2.48,1.67.74.95.53,1.59,1.01,2.37,1.53.39.26.83.55,1.36.86.52.31,1.13.63,1.85,1.01.72.37,1.57.79,2.53,1.3.23.13.48.27.74.41.12.07.25.15.38.23.13.08.27.17.41.25.6.38,1.28.8,2.06,1.25-1.26-.82-1.96-1.37-2.23-1.63-.27-.26-.18-.3.21-.13.42.19,1.16.62,2.22,1.26,1.06.63,2.44,1.49,4.28,2.26-.66-.15-1.31-.34-1.95-.55.98.49,1.83.82,2.63,1.07.78.23,1.39.37,1.91.5.52.13.96.25,1.37.41.38.14.82.36,1.31.65-.94-.41-1.2-.38-.71-.06.56.36,1.91,1.24,4.18,2.71-1.18-.6-2.32-1.22-3.35-1.68.7.36,1.45.8,2.24,1.26.79.46,1.6.93,2.47,1.38.86.45,1.76.88,2.71,1.25.47.18.96.36,1.46.51.49.14.91.23,1.37.35.63.21,1.29.43,1.98.65.35.11.7.22,1.05.33l.13.04.06.02h-.01s.05.01.07.03h.02s.12.07.12.07l.25.12-1.24-1.26c.28.68.85,1.33,1.5,1.71.32.19.64.32.95.41l.52.13c.23.05.45.11.68.16.05.01.09.02.12.04.02,0,.03.02.03.01h0l.04.02.09.04c.96.42,1.92.84,2.89,1.27,1.93.84,3.84,1.67,5.6,2.43,1.76.77,3.37,1.48,4.7,2.09l.06.03h-.02.03s.02.03.12.09c.15.09.29.18.42.26.27.17.53.33.76.48.47.3.86.57,1.14.79,0,0,.97.57,2.48,1.46,1.53.88,3.63,2.08,5.97,3.21,1.17.56,2.4,1.11,3.64,1.59.62.23,1.23.47,1.88.67.63.2,1.25.38,1.84.52,2.37.57,4.23.82,5.23.93-1.78-.22-.24.19,1.27.65,1.51.46,3.09,1.05,1.76.86,1.08.21,2.68.6,4.56,1.18,1.88.57,4.04,1.32,6.26,2.11s4.49,1.6,6.57,2.3c2.08.7,3.98,1.26,5.37,1.67-.36-.07-.72-.15-1.08-.22.64.18,1.29.33,1.94.48.64.14,1.31.29,1.92.39,1.23.2,2.44.4,3.63.59l.41.07.1.03c.28.08.57.16.85.23.57.16,1.13.31,1.69.46,1.12.3,2.22.6,3.31.89,1.09.3,2.17.57,3.24.82,1.07.26,2.13.52,3.19.78,1.06.25,2.1.5,3.13.75,1.04.23,2.08.46,3.11.69,4.12.94,8.21,1.76,12.36,2.65,2.08.41,4.19.84,6.33,1.29,2.14.46,4.33.86,6.57,1.34-.38-.27,1.8.12,3.8.39,2,.28,3.8.51,2.66.08,9.36,1.32,17.86,2.74,24.92,3.62,7.05.92,12.64,1.39,16.1.93,2.14.17,3.85.3,5.27.41,1.42.12,2.56.24,3.57.36,2.02.25,3.52.42,5.74.57l-2.05-.02c2.01.08,3.85.16,5.54.23,1.69.04,3.25.08,4.69.12,1.45.04,2.78.07,4.06.1,1.27.01,2.47.03,3.64.04,1.17.01,2.31.03,3.45.04,1.14,0,2.29,0,3.48,0h3.72c1.3-.01,2.69-.03,4.19-.05,2.98-.1,4.71-.38,7.02-.61,2.31-.22,5.21-.47,10.56-.65-3.44.46.92.17,4.92-.07-2.55.19-3.33.35,1.92.2.73-.14,1.87-.27,2.94-.39.04.02.26.02.15.06,3.33-.28,4.7-.47,4.85-.51.15-.05-.91.02-2.46.12.15-.05-.11-.08-1.07-.09,1.73-.03,3.8-.19,5.95-.35,2.15-.16,4.36-.39,6.38-.59,2.03-.2,3.86-.39,5.24-.52,1.38-.13,2.31-.17,2.54-.08,9.87-1.24,18.29-2.7,26.26-4.26,7.96-1.57,15.47-3.26,23.48-5.18l-1.25-.42c.18.21.41.41.68.58.32.22.58.32.71.38s.15.08.05.09c-.1,0-.32-.02-.63-.14s-.69-.35-1.03-.72l1.53.51c-1.17.37-3.52.99-6.18,1.63l6.23-1.43-1.74-.58c.31.36.71.68,1.2.88s1.02.27,1.49.23c.12,0,.23-.03.35-.05l.25-.05.33-.08.66-.16,2.64-.61c0,.11-.63.31-1.6.56-.48.12-1.05.26-1.67.41-.18.04-.37.08-.55.12-.34.07-.73.09-1.13.04-.82-.1-1.63-.58-2.11-1.17l1.94.64c-1.71.38-3.52.78-4.88,1.11,1.63-.3,3.27-.62,4.91-.96l-2.09-.7c.29.35.67.67,1.12.9.45.23.97.36,1.45.38.24,0,.48,0,.7-.04.11-.01.23-.04.31-.06l.15-.03.58-.12c.77-.17,1.55-.35,2.32-.51,1.55-.36,3.11-.72,4.69-1.09,1.57-.38,3.16-.76,4.76-1.15,1.61-.41,3.17-.74,4.81-1.05,3.27-.63,6.7-1.14,10.22-2.02,1.78-.46,3.53-1.02,5.23-1.6,1.72-.58,3.42-1.18,5.16-1.79l3.1-1.5.93-.32c-.1-.11,3.27-1.67,5.52-2.65,2.27-.61.12.71,7.66-2.44,1.52-.55,3.34-1.29,5.3-2.07.51-.2.91-.36,1.49-.57.55-.2,1.1-.43,1.65-.65,1.1-.46,2.22-.96,3.33-1.49s2.22-1.09,3.32-1.64c.55-.28,1.09-.56,1.63-.83.53-.27,1.06-.53,1.59-.8,2.12-1.04,4.23-1.98,6.16-2.82-4.2,1.69-2.91.98-1.16.13,3.75-1.56,6.07-2.14,8.94-3.5l.52.22c-.82.14,1.63-.98,4.4-2.39,2.7-1.46,5.74-3.1,6.38-3.52,2.2-.81-5.52,3.15-6.35,3.81,1.84-.93,3.31-1.71,4.54-2.35,1.22-.64,2.19-1.15,2.99-1.52.8-.39,1.42-.69,1.96-.95.27-.13.52-.25.76-.37.12-.06.23-.12.35-.17.11-.05.21-.09.32-.14.87-.38,1.84-.77,3.49-1.44.83-.34,1.85-.75,3.15-1.33,1.29-.59,2.86-1.29,4.74-2.49.96-.66,1.6-1.18,2.04-1.55.22-.19.39-.33.53-.45.07-.06.12-.11.17-.16s.05-.06.08-.08c.07-.08.05-.11-.02-.08-.04.01-.07.02-.16.07s-.18.11-.29.17c-.85.51-2.19,1.34-.57-.06l.82-.63.87-.5,1.9-1.09c1.27-.73,2.54-1.45,3.83-2.19,1.25-.71,2.5-1.42,3.79-2.15.12-.09.27-.08.41-.11.15-.02.27-.03.46-.04.18-.01.35-.02.53-.03h.46c.07,0,.14-.01.22-.03.59-.06,1.21-.45,1.54-.98.33-.53.43-1.13.35-1.71l-.41.86.08-.05-.87-.02c.57.37,1.32.53,1.99.43.67-.08,1.27-.36,1.78-.72l.31-.23.29-.2c.19-.12.41-.25.59-.34.34-.18.7-.31,1.07-.4-.33.03-.68.1-1.02.22-.16.05-.37.14-.57.23-.2.09-.39.19-.59.3.31-.24.63-.46.94-.64.29-.17.6-.32.91-.43.63-.23,1.29-.33,1.94-.26h.12s.04.06.07.09l.12.2.23.4c.16.27.31.53.47.79.17.29.35.58.51.86.18.3.36.59.54.88.71,1.16,1.43,2.26,2.09,3.32,1.33,2.13,2.46,4.18,3.51,6.16.52.99,1.03,1.97,1.52,2.94.51.96,1,1.91,1.5,2.85.98,1.89,1.95,3.76,2.92,5.7.47.81.94,1.61,1.41,2.39.46.78.92,1.57,1.4,2.32.47.75.96,1.48,1.44,2.19.47.71.99,1.41,1.4,2.07.83,1.36,1.32,2.87,1.79,4.34.46,1.47,1.01,2.88,1.68,4.15.67,1.28,1.46,2.42,2.34,3.42.87,1,1.83,1.84,2.78,2.61,1.91,1.53,3.79,2.77,5.41,4.09,1.63,1.31,3,2.68,4.02,4.13.51.72.94,1.46,1.28,2.19.34.73.6,1.41.84,2.07.47,1.3.83,2.43,1.17,3.39.33.95.67,1.73.94,2.4l.06.49c.02.13.07.24.16.4.12.27.24.51.34.74.21.44.39.79.53,1.06.29.53.46.7.52.6.06-.11.02-.51-.11-1.13-.06-.31-.15-.68-.25-1.1-.03-.11-.05-.21-.08-.32-.01-.06-.03-.11-.04-.17,0-.02,0-.02,0-.03,0,0,0,0,.01-.01l-.13.02c-.09,0-.15,0-.19,0l.25-.89c-.12-.49-.24-1.02-.38-1.58-.12-.57-.26-1.17-.4-1.8-.29-1.3-.61-2.79-1.15-4.42-.59-1.76-1.57-3.45-2.7-4.89-1.13-1.45-2.4-2.67-3.61-3.73-1.21-1.06-2.35-1.96-3.3-2.77-.96-.81-1.75-1.53-2.35-2.14-.59-.61-1-1.11-1.28-1.47-.27-.36-.41-.57-.41-.57-.56-.83-1.02-1.71-1.41-2.64-.19-.47-.37-.94-.53-1.42-.08-.24-.16-.49-.23-.74-.08-.27-.15-.53-.22-.79-.31-1.12-.64-2.36-1.17-3.68-.27-.65-.59-1.32-.95-1.95-.09-.16-.19-.31-.28-.47l-.23-.37-.44-.7c-.58-.92-1.14-1.83-1.65-2.72-.52-.89-.98-1.76-1.5-2.72-1.02-1.87-2.03-3.71-3.01-5.52-.99-1.81-1.99-3.57-2.94-5.36-.95-1.79-1.92-3.58-2.93-5.35-.51-.89-1.03-1.77-1.56-2.65l-.82-1.31-.78-1.23c-.51-.81-1.02-1.63-1.5-2.44l-.52-.89-.72-1.29c-.48-.88-.97-1.77-1.45-2.65l-.66.34-.16.08s-.09.04-.14.06l-.27.11-.27.11c-.08,0-.15-.01-.23-.02-.15,0-.3-.03-.46-.03-.61-.02-1.24.04-1.87.17-.63.13-1.25.32-1.85.59-.31.13-.59.27-.89.43-.17.1-.24.14-.35.2l-.3.19c-.19.13-.39.25-.56.39-.09.07-.18.13-.27.2l-.19.15h0s.04.08.04.08c.07.12.13.27.18.41.1.29.13.56.12.7-.01.15-.04.1.06-.06l2.81-4.34-5.68,3.33-.09.05v3.16c-.08,0-.03,0,.08.02.11.03.24.11.27.16.04.04,0,.02-.05-.18-.02-.06-.02-.1-.03-.17,0-.04,0-.08,0-.11v-.08c.01-2.94,0-.82,0-1.47h-.49s-.47.04-.47.04l-.53.04c-.48.05-.97.11-1.44.21l-.65.35-.59.33-.66.37c-1.75.99-3.52,2-5.33,3.02-.9.51-1.81,1.03-2.74,1.55l-.69.39-.38.21c-.28.15-.47.25-.64.41l-.7.55-.61.46c-.82.61-1.63,1.17-2.45,1.64-.86.5-1.79.97-2.77,1.43-1.96.91-4.1,1.75-6.38,2.73-.28.12-.63.28-.93.42-.27.14-.55.27-.83.41-.55.27-1.12.55-1.68.83s-1.13.56-1.7.85c-.55.29-1.11.59-1.67.88-2.24,1.17-4.54,2.46-6.92,3.52-2.4,1.1-4.94,2.15-7.61,3.25l-.03-.02Z"/>
        </g>
      </g>
      <g>
        <g>
          <path class="cls-1" d="M35.17,40.51c17.69,11.21,33.74,19.21,46.53,24.85,3.48,1.53,18.05,7.9,38.19,14.3,15.62,4.97,29.55,8.36,41.01,10.72"/>
          <path class="cls-2" d="M58.4,45.37c.23.2.48.26.75.18l.48-.22c1.03-.62,2.04-1.26,3.05-1.89,1.82-1.19,3.58-2.34,5.51-3.33.06-.04.22-.07.21-.18.03-.13-.1-.16-.18-.21-.87-.51-1.74-1.01-2.61-1.52-.91-.49-1.85-.81-2.84-1.02-.56-.12-1.06.05-1.55.27l-.15.14c-.13.11-.18.2-.13.37.2.51-.38.98-.81.96-.27-.04-.47-.22-.57-.45-.03-.09-.04-.13-.04-.2v-.15c0-.07,0-.15,0-.22.07-.33.18-.6.42-.84.3-.35.67-.56,1.1-.74,1.39-.47,3.33-.16,4.69.31.65.23,1.26.46,1.88.68.33.14.63.34.9.52.6.39,1.15.8,1.72,1.18l.3.12c.29.08.56.19.82.4.35.3.31.79-.13,1-.15.07-.32.12-.5.1l-.33-.07c-.35-.04-.7,0-1.01.16l-3.35,2.25c-1.27.86-2.5,1.78-3.8,2.55-.44.27-.87.52-1.3.77l-.47.33c-.25.2-.29.62,0,.89,1.06.98,2.12,1.88,3.22,2.77.25.21.55.22.86.17.35-.11.63-.28.93-.49,3.85-2.71,8.04-4.95,12.75-5.76.35-.03.66-.05,1-.01.17.02.33.07.46.17s.2.25.13.37c-.02.1-.14.19-.25.27l-.21.11c-.1.05-.19.08-.29.14-.35.11-.7.21-1.08.3-3.84.77-8.04,3.37-11.22,5.52l-.25.27c-.06.19-.02.32.15.41l.36.08c.29.08.59.13.9.19.06.03.13.03.16.05l.42.19s.08.04.12.06c.1.09.12.18.09.23-.02.1-.11.2-.21.25v.03c-.12.05-.18.1-.26.12-.2.04-.41.08-.63.07-.64.02-1.27-.1-1.89-.32-.35-.11-.69-.08-.99.13l-.49.36c-.7.62-1.19,1.39-1.52,2.27-.3.83-.44,1.71-.43,2.57l.02.38c-.02.17-.11.27-.31.31-.29.06-.56-.04-.79-.24-.51-.57-.52-1.35-.5-2.07.07-.81.18-1.64.67-2.33.2-.3.38-.64.61-.93.31-.38.66-.75.98-1.13.28-.32.23-.57-.11-.83-.41-.33-.84-.63-1.25-.97-.79-.65-1.54-1.38-2.29-2.11-.21-.23-.44-.27-.7-.2l-.41.15c-.43.25-.86.5-1.31.73-2.05,1.14-3.89,1.96-6.27,1.04-.5-.23-.97-.45-1.44-.74-.7-.49-1.1-.77-1.29-1.65-.04-.2-.02-.38.1-.53.06-.04.12-.08.18-.05.07,0,.08.04.13.11l.06.03c.04.06.1.16.14.22.16.2.34.33.57.45,1.2.57,2.92.73,4.19.3,1.17-.33,2.31-.67,3.41-1.14l.51-.27c.18-.12.12-.3-.02-.45-.37-.2-.69-.56-1.05-.78l-.5-.31c-.3-.2-.63-.27-.98-.23-.07,0-.16.02-.27.04h-.15c-.07,0-.12,0-.17-.02-.13-.03-.2-.11-.24-.24-.03-.09,0-.19.04-.27s.13-.11.21-.18l.19-.08c.08-.07.16-.1.25-.12.94-.23,1.84.14,2.66.59.44.27.9.52,1.26.86h0Z"/>
          <path class="cls-3" d="M74.06,61.88c-.47.39-1.26.22-1.77.01-.06-.03-.15-.07-.2-.1-1.14-.69-1.86-1.9-1.38-3.25.08-.32.22-.61.33-.92l.1-.27c.03-.13-.03-.23-.19-.2l-.88.19c-.55.17-1.07.35-1.6.49-.52.18-1.06.25-1.62.16-.23-.04-.42-.09-.63-.27-.23-.19-.37-.43-.36-.75,0-.29.08-.54.23-.78,1.24-2.28,7.2-5.39,9.39-4.33.32.16.53.4.69.73.01.04.03.09.04.13l.06.1c.05.2.18.3.38.33l.61.08c.07,0,.13.03.17.01.23.11.34.34.26.59-.05.19-.14.36-.31.5l-.59.47c-.31.21-.66.4-1.01.59-.78.49-1.51,1.04-2.16,1.66-.43.44-.75.9-.94,1.49-.15.61-.1,1.32.4,1.78.2.17.43.31.63.48.13.1.29.21.41.34.19.27.17.55-.08.75h0ZM74.76,53.98c.2-.41.08-.68-.36-.75h-.47c-1.8.13-3.75,1.35-5.08,2.47l-.19.23-.07.22c.04.13.16.12.23.11l.42-.05c1.75-.42,3.35-1.12,4.96-1.86l.36-.22.19-.16h0Z"/>
          <path class="cls-3" d="M87.74,61.71c.16.11.22.31.1.51-.13.23-.33.35-.53.47-.58.27-1.52.78-2.08,1.02-.64.32-1.32.66-1.97.94-.77.3-1.94.7-2.77.33-.47-.21-.65-.61-.47-1.1.09-.28.21-.55.39-.79.55-.75,1.18-1.39,1.9-1.96.71-.57.57-.56,1.28-1.13l.68-.59c.09-.13.28-.23.18-.42-.08-.14-.25-.08-.39-.07-1.73.16-4.52,1.72-6.02,2.54-.68.34-1.87.94-2.67.84-.26-.04-.44-.2-.48-.43,0-.07,0-.15,0-.25l.05-.19c0-.07.02-.13.05-.19.11-.23.27-.45.43-.66.68-.73,5.14-4.07,6.38-4.48.04-.02.07,0,.12-.02l.47-.11s.08-.03.12-.02c.23-.04.43.08.49.25.08.21.14.42.01.61-.06.04-.11.09-.16.11l-.5.42c-.06.04-.1.06-.14.08-.54.33-1.24.8-1.73,1.11-.27.13-.48.35-.66.6.21-.08.52-.12.73-.21,1.05-.46,3.41-1.86,5.06-1.66.06.03.12.05.19.05l.43.16s.09.04.15.07c.43.23.6.66.42,1.14-.06.29-.23.53-.43.73-.27.3-.59.52-.92.73-1.04.67-1.08.83-2.01,1.66l-.57.56-.2.37c-.11.24.02.36.25.32l.59-.13c.21-.08.4-.18.61-.26.55-.21,1.49-.65,2.07-.82.29-.08.54-.19.85-.23h.32c.07,0,.15,0,.23.03.07,0,.13.02.19.05l-.02-.02Z"/>
          <path class="cls-3" d="M104.1,57.68c-.74.96-1.88,1.54-2.97,2.05-.83.4-1.68.78-2.51,1.18-2.66,1.37-4.96,3.94-6.22,6.61-.35.7-.51,1.44-.54,2.19-.02.31-.07.6-.21.86-.16.32-.45.51-.75.47-.19-.04-.34-.1-.5-.24-.75-.66-.67-1.81-.39-2.67l.1-.24c.21-.51.51-.98.77-1.47l.33-.56.08-.21c.05-.12.11-.27.03-.34-.1-.11-.23-.03-.33.04l-1.37.7c-.99.54-2.95,1.32-4.1.96-.06-.02-.12-.05-.15-.06l-.29-.15c-.06-.03-.12-.05-.17-.1-.39-.33-.5-.76-.39-1.28.08-.46.29-.9.55-1.28,1.48-2.34,4.9-5.78,7.96-4.54.39.16.67.41.9.79l.41.55c.13.2.23.2.44.11l.35-.24c.34-.32.71-.62,1.05-.94.57-.47,1.13-.98,1.71-1.44,1.15-.94,4.57-2.97,6.13-2.34.45.18.52.53.45.88-.07.25-.2.48-.39.71h0ZM93.08,62.06c.14-.43-.08-.84-.53-1.02-1.56-.63-4.32,1.68-5.22,2.78-.16.22-.33.46-.44.73-.12.37.02.64.43.67l.64-.02,1.01-.25c1.05-.35,2.11-.79,3.02-1.4.44-.31.8-.69.98-1.21l.11-.27h0Z"/>
          <path class="cls-3" d="M104.46,68.42c.12.22.06.4-.2.44-.07,0-.13-.01-.17,0l-.54-.03c-.06-.02-.13-.01-.16-.03-.35-.09-.66-.18-1.01-.27-.67-.25-1.36-.54-2.05-.8l-2.37-.88c-.33-.12-.65-.31-.91-.51-.17-.1-.29-.25-.36-.41-.04-.16-.03-.29.03-.37.09-.07.21-.09.28-.1l.08-.04c.07,0,.17,0,.25-.01.33.05.61.12.93.21.82.31,1.68.59,2.51.87l1.02.34c.77.25,1.47.69,2.18,1.12.09.04.17.1.25.16l.15.16c.05.05.07.09.12.15h-.01Z"/>
          <path class="cls-3" d="M123.05,74.44c.05.36-.08.63-.4.79-1.24.64-4.74,2.2-5.64,2.45-.5.17-1.05.27-1.58.22-.23-.04-.42-.07-.62-.21-.41-.2-.57-.64-.48-1.12.05-.36.22-.65.42-.95.77-1.08,1.74-1.92,2.73-2.74.35-.33.71-.69,1.06-1.01.16-.16.28-.32.4-.48l.1-.2c.05-.16-.02-.25-.16-.23l-.44.09c-1.04.44-2.03.96-3.01,1.52-1.07.63-2.11,1.31-3.18,1.94-.38.21-.79.42-1.22.58-.27.08-.55.09-.83.03-.03,0-.07,0-.12-.04l-.09-.03c-.06-.02-.09-.03-.16-.05-.4-.23-.48-.51-.25-.87.02-.06.03-.09.07-.11l.35-.43c.02-.06.07-.11.12-.13l.95-.91c.39-.35.78-.7,1.12-1.1l.26-.36-.08-.16-.39.04c-.35.12-.73.23-1.06.4-1,.42-1.93.96-2.84,1.54l-1.76,1.05c-.2.1-.4.17-.61.27-.2.1-.5.07-.72,0-.4-.13-.59-.47-.54-.94.06-.29.16-.59.32-.85l.19-.24c.02-.06.08-.14.17-.21,2.25-2.22,2.85-2.98,5.3-4.48.52-.34,1.31-.76,1.95-.82.32-.03.54.12.55.39.03.11,0,.2-.03.3l-.02.06c0,.1-.02.16-.08.25-.16.26-.37.49-.62.71-.38.32-.8.66-1.22.99l-.77.67c-.09.07-.23.16-.13.3.04.08.2.03.27,0,.4-.17.8-.35,1.18-.56,1-.52,1.99-1.04,3.04-1.41l.86-.22c.12-.03.26-.05.39-.04h.23c.1,0,.16.03.26.06.3.13.44.42.39.78-.05.26-.19.45-.36.67l-.75.81c-.09.07-.14.23-.2.31l.62-.1c1.1-.52,3.64-1.48,4.81-1.09.34.12.6.34.82.62.26.36.23.73,0,1.1-.66,1.05-2.23,2.26-3.18,3.07-.48.42-.94.88-1.29,1.41l-.2.27c-.03.09,0,.17.11.17h.38c1.08-.26,3.33-1.05,4.32-1.67.25-.12.48-.21.7-.35.33-.16.55-.09.59.27h0Z"/>
          <path class="cls-3" d="M128.41,82.27c-.41.45-1.21.41-1.75.28-.06-.02-.16-.05-.22-.07-1.23-.51-2.13-1.59-1.87-3,.03-.33.12-.64.19-.96l.05-.29c0-.13-.07-.22-.22-.17l-.84.32c-.51.25-1,.51-1.51.73-.48.26-1,.41-1.58.4-.23,0-.43-.03-.66-.16-.26-.15-.43-.37-.47-.68-.05-.28,0-.55.11-.81.87-2.45,6.28-6.43,8.61-5.73.34.1.59.31.8.61.02.04.04.08.07.12l.08.09c.08.19.22.27.43.27l.62-.02c.07-.01.13,0,.17-.01.25.08.39.29.34.55-.03.2-.08.38-.23.54l-.51.56c-.28.25-.59.5-.9.74-.69.6-1.33,1.26-1.88,1.97-.35.5-.61,1-.69,1.62-.05.63.11,1.32.67,1.69.23.14.47.24.7.38.15.08.32.16.46.27.23.24.25.51.04.76h0ZM127.89,74.35c.13-.43-.03-.69-.47-.68l-.46.06c-1.75.42-3.49,1.92-4.64,3.24l-.15.26-.04.23c.07.12.18.09.25.08l.41-.12c1.66-.68,3.13-1.63,4.62-2.6l.32-.27.16-.19h0Z"/>
          <path class="cls-3" d="M147.84,69.24c.19.19.22.43.11.7-.11.27-.31.52-.51.74-1.09,1.25-3.15,2.76-4.5,3.74-1.06.82-2.13,1.63-3.17,2.46-.55.39-.99.9-1.4,1.43-.6.71-1.19,1.39-1.76,2.11-.16.23-1.54,2.06-.57,1.93l.55-.15,1.09-.54c.36-.2,1.1-.57,1.46-.78.61-.37,1.21-.74,1.85-1.1l.47-.24c.32-.18.47-.24.55-.15.16.15.61.47.21.94-1.17,1.33-4.4,3.02-6.25,3.52-.48.17-.99.16-1.5.09-.29-.05-.6-.13-.78-.32-.74-.74.4-2.18.52-2.51l-.08-.09-.32.08-1.18.51c-.42.19-.82.41-1.26.56-.53.22-1.15.26-1.71.1-.5-.14-.86-.54-.91-1.09,0-.03-.01-.07,0-.1l.02-.43c.06-.59.3-1.1.6-1.58.86-1.51,1.95-2.79,3.35-3.85.96-.68,2.66-1.45,3.9-1.21.75.08,1.33.43,1.77,1.02.18.22.36.27.6.13l.24-.14.95-1.12c.31-.39.64-.73.97-1.08l2.24-2.04c.95-.88,2.59-2.21,3.97-1.83.03,0,.08.06.15.08l.17.12c.06.02.12.07.17.12h0ZM137.6,76.48c.08-.31-.02-.65-.28-.82l-.37-.13c-2.06-.33-5.41,2.54-6.07,4.31l-.08.31c-.03.23.1.36.33.39l.53-.09.74-.27,1.77-.93c.5-.23.96-.55,1.46-.78,1-.57,1.36-1.04,1.96-1.98v-.03s0,0,0,0Z"/>
          <path class="cls-3" d="M142.06,82.4c-.3.39-.45.86-.54,1.34-.02.2.08.32.31.38s.43,0,.67,0c.5-.11.94-.27,1.38-.46.78-.34,3.17-1.45,3.96-1.81.34-.15.71-.32,1.09-.47.18-.05.32-.08.45-.05.19.05.29.17.27.4s-.08.45-.19.62c-.05.05-.09.11-.16.12l-.08.05c-1.04.41-5.4,2.62-6.48,2.92-.54.13-1.12.19-1.65.05-.88-.22-1.53-.95-1.48-1.84.06-.35.09-.75.24-1.11,1.38-2.83,2.87-4.53,5.74-5.95l.78-.31c.47-.15.91-.17,1.35-.06.75.19,1.41.89,1.31,1.7-.6,2.39-2.64,3.72-4.93,4.31-.31.05-.63.11-.94.16-.24.04-.44.02-.65-.06-.2-.12-.31-.11-.45.05h0ZM143.25,80.59c-.07.15,0,.27.16.31.94.23,2.94-1.47,3.51-2.13.2-.25.23-.51.14-.83l-.2-.15-.34.02-.7.26c-.76.38-1.44.94-2,1.6l-.4.54-.16.39h0Z"/>
        </g>
        <g>
          <path class="cls-1" d="M26.49,63.6c17.69,11.21,33.74,19.21,46.53,24.85,3.48,1.53,18.05,7.9,38.19,14.3,15.62,4.97,29.55,8.36,41.01,10.72"/>
          <path class="cls-2" d="M45.92,67.69l.09.35c.1.28.03.54-.22.7-1.47.91-4.72,1.54-6.21,1.46-.04.01-.1-.02-.15,0l-.55-.09c-.06-.03-.1-.02-.16-.05-.58-.23-.8-.69-.78-1.17,0-.41.12-.79.37-1.1.2-.22.44-.5.61-.73.08-.14.09-.28-.05-.29h-.38c-.47.11-.94.21-1.4.35-.49.13-.95.27-1.46.31-.53.07-1.06-.05-1.53-.33-.24-.1-.43-.29-.61-.5-.19-.26-.2-.56-.09-.88l.08-.21.05-.08c.03-.06.08-.14.14-.18,1.04-1.08,2.32-1.88,3.7-2.43,1.54-.65,4.3-1.33,5.81-.45.42.24.7.59.76,1.15,0,.15.05.18.21.16l.81-.09s.07,0,.12,0c.17.03.34.12.45.26.26.26.22.65-.08.85-.23.13-.49.2-.74.31-.64.27-1.32.47-1.98.76-.98.4-1.79,1.02-2.55,1.74-.23.2-.38.46-.48.77-.11.31,0,.52.34.57.27.04.51.03.76,0,.58-.15,1.15-.31,1.73-.46.69-.16,2.47-.63,3.15-.72l.13-.04s.1.02.11.07h0ZM41.64,64.79l.71-.45.25-.23c.14-.18.1-.43-.11-.59-.73-.42-2.24-.14-3,.06l-1.81.67c-.54.29-1.06.55-1.57.89l-.37.39c-.07.11-.01.22.13.3l.21.08h.52c1.24-.07,3.94-.45,5.04-1.12h0Z"/>
          <path class="cls-2" d="M51.86,71.19c.28-.11.49-.04.65.23.05.17.12.32.02.45-.03.06-2.74,1.16-3.1,1.3-.76.33-2.42.63-3.23.72-.31.02-.61.04-.93.1-.17.05-.36.07-.57.03-.22,0-.42-.04-.61-.17-.26-.14-.47-.36-.64-.59-.12-.25-.13-.51-.04-.75.11-.2.27-.37.42-.51.34-.37.75-.67,1.18-.92.85-.51,1.72-1.04,2.57-1.54.56-.29,1.28-.76,1.62-1.27.15-.29.1-.54-.23-.53l-.48.08c-.41.08-.79.24-1.14.43-.57.32-1.14.64-1.73.92-.15.07-.59.28-.76.26h-.07c-.06.04-.13.04-.16.02-.13-.03-.19-.06-.21-.15-.04-.13,0-.29.07-.4l.03-.06c.06-.12.13-.19.22-.28.31-.31.71-.58,1.07-.79.53-.31,1.09-.6,1.61-.91l.63-.44c.37-.28.43-.54.25-.97l-.14-.44s0-.07-.01-.12c-.05-.25.07-.48.27-.66.44-.35,1.11-.37,1.54-.14.37.2.59.56.37.97-.08.22-.21.4-.31.6-.12.23-.09.39.15.55l.55.36c.24.16.46.31.6.54.37.49.32.79.04,1.31l-.33.41c-.06.04-.08.07-.13.12-.4.41-.86.72-1.36,1.05-.59.35-1.22.71-1.85,1.08l-.91.62-.31.39c-.12.23-.02.39.24.46l.45.05c.38-.09.77-.14,1.15-.24.61-.19,1.2-.39,1.8-.63.57-.18,1.18-.29,1.76-.5h0Z"/>
          <path class="cls-3" d="M59.69,68.77c-.1.13-.09.24.02.38l.27.18.67.32c.24.09.46.24.66.42.27.25.29.56.1.78-.12.16-.27.23-.43.25l-.59-.06s-.12.01-.15,0c-.51-.08-.95-.28-1.4-.48l-.14-.08s-.06-.03-.08-.04c-.47-.28-.91-.22-1.39,0-1.89.88-4.94,3.41-6.32,4.85-.34.37-.71.73-1.08,1.08-.22.21-.46.38-.72.54-.31.17-.64.18-.97-.04-.26-.14-.4-.35-.38-.67,0-.26.08-.51.2-.74.18-.35.39-.67.69-.96.52-.57,1.08-1.15,1.63-1.71.39-.39.81-.71,1.25-.99.47-.27.88-.56,1.32-.84.63-.44,1.28-.83,1.94-1.25l.63-.44.21-.19c.31-.31.33-.41-.03-.64l-.74-.47c-.35-.18-.67-.39-.93-.67-.03-.01-.07-.08-.1-.09l-.25-.35s-.07-.08-.08-.12c-.16-.27-.15-.55.06-.81.21-.26.48-.3.8-.2.23.05.46.17.7.26.07,0,.16.05.24.09.37.27.73.57,1.13.85.23.19.5.37.76.51.36.15.69.22,1.09.09.63-.22,1.18-.51,1.76-.83l.98-.55c.47-.27,1.83-.76,2.39-.79.15,0,.31.05.46.1.08.04.13.11.2.18.06.1.08.19.07.29-.05.16-.14.33-.28.47-.22.28-.52.5-.82.67-.46.31-1,.5-1.49.68-.48.22-.99.43-1.48.72l-.37.28h0Z"/>
          <path class="cls-3" d="M61.84,72.04c.09.12.13.25.03.45-.1.2-.26.38-.48.52l-.8.43c-.7.37-1.44.69-2.12,1.04-.61.35-1.22.69-1.8,1.05-.45.24-.82.61-1.13,1.02l-.26.45c-.12.23-.02.39.2.47l.48.06c.23.04.45.04.68.09.06.03.13.03.19.06l.33.13c.07,0,.13.03.17.09.24.16.29.43.16.7-.1.27-.32.49-.57.62-.78.47-1.74.57-2.58.15-.75-.38-1.18-1.18-.96-2.12l.04-.23c.03-.06.06-.12.09-.17l.13-.33c.03-.06.04-.09.06-.12,1.34-2.3,4.3-4.33,6.91-4.61.04-.01.12-.01.15,0l.39.02c.15,0,.27.03.41.06l.06.03c.09.04.17.09.24.16h0ZM65.97,69.18c.32.31.38.63.07.94-.52.53-1.22.76-2.07.59-.19-.06-.36-.15-.48-.28-.17-.16-.2-.32-.16-.48.06-.19.2-.33.39-.42.15-.07.26-.16.36-.29.29-.51.89-.61,1.57-.3.06.03.12.06.16.12h.03c.06.04.09.06.13.12h0Z"/>
          <path class="cls-3" d="M68.06,76.73c-.23.18-.52.25-.79.3-.09.03-.19.02-.27-.03-.12-.06-.16-.12-.15-.22.03-.06.04-.09.06-.12l.13-.26c.14-.22.08-.39-.16-.47h-.47c-1,.12-1.77.61-2.3,1.48-.11.23-.2.48-.25.74-.09.5-.16,1-.25,1.5-.08.39-.18.82-.35,1.17-.41.99-1.15,1.57-2.19,1.72-.56.05-1.1-.03-1.57-.25-.59-.28-1-.7-1.28-1.23-.37-.58-.64-1.35-.39-2.03,0-.07.06-.12.08-.18l.14-.22c.03-.06.07-.15.13-.19.27-.19.59-.18.86.02.29.21.5.46.68.76l.31.47.37.43c.34.34.92.19,1.14-.06.16-.18.24-.35.31-.57.11-.52.17-1.03.21-1.56.02-.42.09-.86.21-1.26.29-.98.94-1.64,1.87-2.01.97-.43,2.14-.41,3.08.04.35.17.64.38.92.7.15.22.25.45.24.69.02.26-.09.49-.31.64h0Z"/>
          <path class="cls-2" d="M76.91,83.1l.13.34c.12.27.08.53-.15.72-1.37,1.06-4.54,2-6.03,2.07-.04.02-.1,0-.15,0l-.55-.04c-.06-.03-.1,0-.16-.04-.6-.16-.86-.61-.9-1.08-.03-.4.04-.8.26-1.13.18-.24.39-.54.54-.79.07-.15.06-.29-.08-.29l-.38.04c-.46.15-.92.3-1.36.49-.47.18-.91.37-1.42.46-.52.12-1.06.05-1.56-.17-.25-.08-.46-.24-.66-.44-.21-.24-.25-.54-.18-.86l.07-.22.04-.09c.03-.06.07-.15.12-.2.93-1.18,2.12-2.1,3.44-2.79,1.46-.8,4.14-1.76,5.74-1.03.44.2.76.52.87,1.07,0,.15.07.17.22.14l.79-.18s.07,0,.12-.02c.17,0,.35.09.47.21.28.23.28.63,0,.86-.21.16-.47.25-.71.39-.61.33-1.27.6-1.89.96-.94.5-1.68,1.2-2.36,1.99-.21.23-.33.49-.4.81-.08.32.05.52.4.54.27.02.51-.02.75-.09.56-.21,1.12-.42,1.68-.63.67-.23,2.39-.87,3.06-1.03l.13-.05s.1,0,.12.05h0ZM72.36,80.65l.66-.52.22-.26c.12-.2.06-.44-.17-.57-.77-.35-2.25.08-2.97.36l-1.74.85c-.51.34-1.01.65-1.47,1.04l-.33.42c-.05.12,0,.22.16.28l.22.07.52-.05c1.23-.19,3.87-.85,4.9-1.62h0Z"/>
          <path class="cls-3" d="M82.19,89.41c.44.04.6.32.43.74-.03.06-.08.11-.09.14l-.27.38c-.05.05-.08.11-.13.16-.37.38-.84.67-1.38.79-.84.25-1.89.34-2.74-.01-.33-.14-.59-.35-.8-.69-.39-.51-.36-1.06-.11-1.59.66-1.34,1.92-2.43,3.07-3.33.33-.21.62-.48.91-.74l.39-.43c.04-.09-.03-.19-.1-.18l-.54.02c-.5.11-.95.27-1.42.46-1.25.57-2.46,1.26-3.63,1.97-.67.43-1.38.79-2.15,1.04-.07,0-.15,0-.22.01l-.23.04c-.07,0-.1,0-.17,0-.27-.04-.41-.2-.39-.51v-.1c.04-.09.04-.16.07-.22l.05-.12s.04-.09.05-.12c1.1-2.21,5.48-5.09,7.66-5.77.08-.04.16-.04.23-.04l.29-.02c.08-.04.15,0,.22-.01.19.04.36.15.43.32.06.2-.04.34-.16.46-.05.05-.08.11-.16.14l-.05.05c-.05.05-.11.09-.15.11l-1.25.74c-.1.07-.16.21-.26.28h.35c.43-.1.83-.21,1.25-.31.44-.13.91-.25,1.36-.31.2-.06.74-.08.94,0l.25.07c.07,0,.13.02.19.04.38.19.55.54.46,1-.08.35-.24.67-.46.94-.23.29-.47.61-.74.85l-1.52,1.37c-.81.68-1.36,1.08-1.97,1.96l-.25.35-.1.24c-.02.13.04.23.18.25l.74-.08c.39-.08.74-.18,1.12-.24.04-.02.07,0,.12-.02l.52-.07c.06.03.1,0,.17,0h0Z"/>
          <path class="cls-3" d="M98.83,88.92c-.06.08-.12.13-.2.17l-.15.12s-.05.05-.09.07c-.07,0-.17,0-.27-.03s-.16-.13-.24-.19c-.21-.18-.51-.22-.78-.15-1.92.33-3.9,2.16-4.87,3.77l-.24.67c-.11.31,0,.69.35.82.36.13.93.1,1.27.02.34-.08.68-.16,1.06-.23l.66-.1c.15-.02.27,0,.37.03.27.1.37.41.19.79-.12.34-.4.62-.69.85-1.17.85-2.55.93-3.92.53-.06-.02-.15-.06-.2-.11-.15-.06-.32-.16-.5-.25-.73-.55-1.05-1.28-.89-2.19.11-.68.41-1.3.78-1.85,1.71-2.41,4.33-4.56,7.44-4.46.13.01.3.04.45.1.14.08.27.2.41.29.13.12.21.28.22.43.05.33,0,.66-.16.91h0Z"/>
          <path class="cls-2" d="M109.08,96.4c-.92.58-3.48,2.37-3.83,2.56-.63.33-1.25.67-1.96.8-.38.11-.81.17-1.19.17-.27,0-.55-.09-.79-.2-.33-.15-.5-.55-.39-.96.05-.26.14-.5.28-.73l.52-.61c.75-.8,1.52-1.64,2.31-2.43.38-.42.82-.81,1.25-1.25l.56-.63.21-.31c.12-.23.05-.36-.2-.41l-.92.09c-1.98.59-3.89,1.65-5.55,2.9-.59.42-.36.35-.93.81-.3.27-.66.53-.98.76-.15.12-.3.17-.45.22-.12.06-.27.08-.4.07h-.17c-.1,0-.2,0-.3-.03-.2-.11-.28-.27-.3-.51,0-.27.11-.51.21-.72.57-.97,3-2.95,4-3.98.04-.02.05-.05.1-.1l1.66-1.35c1.26-1.08,2.63-2.08,3.99-3.05.64-.47,1.25-.94,1.93-1.43l1.15-.77c.34-.19.69-.31,1.09-.38.2,0,.38,0,.56.06.39.17.51.52.31.9-.22.34-.49.62-.84.84-.36.25-.74.47-1.09.69-.95.57-1.88,1.21-2.76,1.86-1.21.82-2.35,1.66-3.44,2.66-.07.11-.16.26-.26.35l.67-.25c1.09-.48,2.28-.86,3.46-1.11.32-.03.63-.06.93-.02.06.02.12.04.18.06l.24.08c.06.02.16.05.2.11.39.27.4.72.19,1.06-.24.4-.53.74-.85,1.08-.97.94-1.33,1.49-2.31,2.43-.36.35-.75.7-1.1,1.1-.16.18-.31.41-.46.63l-.12.37c-.05.16.05.26.22.25l.65-.19,1.01-.55c.26-.15.51-.3.77-.46.2-.1,1.76-1.04,1.97-1.14l.73-.33c.22-.13.41-.1.57.03.1.1.16.23.09.44-.04.23-.23.37-.44.5h0Z"/>
          <path class="cls-3" d="M108.92,98.34c-.19.28-.32.58-.35.91-.03.4.2.67.59.73.35.08.67.04,1-.05.52-.14,1.01-.29,1.51-.47.38-.12.77-.27,1.13-.35.04-.02.08-.04.16-.05l.46-.06c.07-.01.11-.03.17-.01.41,0,.56.28.36.69-.13.3-.34.54-.6.73-1.34,1.21-3.65,1.87-5.39,1.31-.9-.28-1.65-.9-1.51-1.98.04-.46.24-.87.44-1.29,1.3-2.27,4.46-6,7.46-5.05.74.23,1.08.68,1.13,1.45.01.27-.1.51-.21.78-.61,1.27-1.99,2.19-3.33,2.55-.04.02-.08.04-.14.02l-.8.16c-.32.04-.63-.03-.99-.21l-.31-.1c-.32-.07-.59.02-.78.3h0ZM110.34,97.06h.31c.63-.04,1.25-.19,1.83-.41.37-.19.74-.41,1.05-.72l.24-.33c.06-.19,0-.34-.13-.35l-.46-.04c-.97.07-2.09.8-2.82,1.38l-.14.12c-.11.13-.04.33.13.35h0Z"/>
          <path class="cls-3" d="M116.84,100.84c-.19.28-.31.59-.34.91-.02.4.21.67.6.72.35.07.67.03,1-.08.52-.15,1.01-.31,1.5-.5.38-.12.76-.28,1.13-.38.04-.02.08-.04.15-.06l.46-.07c.07-.01.11-.04.17-.02.41-.01.56.27.37.68-.12.3-.33.55-.59.74-1.31,1.24-3.62,1.94-5.36,1.43-.9-.27-1.67-.86-1.56-1.95.04-.46.23-.88.42-1.3,1.25-2.3,4.34-6.09,7.35-5.2.74.22,1.09.66,1.17,1.43.02.27-.08.51-.2.78-.58,1.28-1.95,2.23-3.28,2.62-.04.02-.08.04-.14.03l-.79.17c-.31.04-.64-.02-.99-.19l-.31-.09c-.32-.06-.59.03-.77.31h0ZM118.25,99.53h.31c.63-.06,1.25-.22,1.82-.45.36-.2.74-.43,1.03-.74l.23-.34c.05-.19,0-.34-.13-.35l-.46-.04c-.97.08-2.07.84-2.79,1.44l-.14.13c-.11.14-.03.33.13.35h0Z"/>
          <path class="cls-3" d="M130.81,99.55c-.2.22-.47.34-.73.44-.08.04-.18.05-.27.03-.12-.04-.18-.08-.19-.19.02-.06.03-.09.04-.12l.08-.28c.1-.24,0-.4-.25-.44l-.46.08c-.96.31-1.64.93-2,1.87-.07.25-.11.51-.12.78,0,.51.02,1.02.02,1.52,0,.4-.03.83-.13,1.21-.22,1.05-.85,1.75-1.85,2.08-.55.15-1.09.17-1.59.03-.63-.17-1.1-.51-1.48-.98-.47-.5-.87-1.21-.75-1.92-.01-.07.04-.12.05-.19l.1-.24c.02-.06.04-.16.09-.21.23-.24.55-.28.85-.14.33.16.57.36.8.63l.39.41.44.35c.39.27.94.02,1.12-.27.12-.2.17-.39.2-.62.01-.54-.01-1.05-.07-1.57-.05-.42-.07-.86-.02-1.28.11-1.01.63-1.78,1.48-2.31.87-.6,2.03-.78,3.03-.51.38.1.7.26,1.03.52.19.19.33.39.36.64.07.25,0,.51-.19.69h0Z"/>
          <path class="cls-3" d="M130.94,104.86c-.17.29-.29.59-.31.93,0,.4.23.66.63.7.35.06.67,0,1-.11.51-.17.99-.35,1.48-.56.37-.14.75-.31,1.11-.42.04-.02.08-.05.15-.06l.46-.08c.07-.01.11-.04.17-.02.41-.03.57.25.4.67-.11.31-.31.56-.56.76-1.26,1.28-3.54,2.07-5.3,1.62-.91-.23-1.7-.8-1.63-1.89.02-.47.2-.89.37-1.31,1.17-2.35,4.11-6.24,7.16-5.46.75.2,1.11.62,1.22,1.38.03.27-.07.52-.17.79-.54,1.3-1.86,2.3-3.18,2.74-.04.02-.08.05-.14.03l-.79.2c-.31.05-.64,0-1-.16l-.31-.08c-.32-.05-.58.05-.76.34h0ZM132.29,103.5l.31-.02c.62-.08,1.24-.25,1.8-.51.35-.21.72-.45,1-.78l.22-.35c.05-.19-.01-.34-.15-.34l-.47-.02c-.97.12-2.04.92-2.74,1.54l-.13.13c-.1.14-.02.33.15.34h0Z"/>
          <path class="cls-3" d="M144.78,105.58c.16.34.03.57-.3.7l-2.16.82c-.05.06-.12.07-.18.06-.53.14-1,.43-1.37.84-1.1,1.27-.87,1.83-2.64,2.41-.29.1-.59.09-.87.03-.41-.1-.95-.36-1.13-.74-.19-.31-.26-.59-.15-.9.09-.24.21-.45.38-.61.57-.73.88-.89,1.7-1.26l.48-.19c.49-.25.81-.74.71-1.3l-.15-1.2c-.08-.39-.12-.76-.09-1.15.07-.85.44-1.43,1.1-1.8.61-.32,1.3-.43,2.04-.28l.73.17c.31.11.6.27.83.56.24.26.34.55.24.79-.12.34-.47.42-.78.35l-.28-.07c-.06-.01-.09-.05-.15-.07l-.55-.23c-.97-.43-1.78.48-1.55,1.46l.11.39c.11.39.24.82.27,1.23.04.27.17.41.41.39l.77-.15c.42-.07,1.28-.46,1.92-.64.32-.09.55.1.67.39h0Z"/>
        </g>
      </g>
      <g>
        <g>
          <path class="cls-1" d="M419.44,91.3c20.58-3.91,37.76-9.04,50.95-13.66,3.59-1.25,18.57-6.57,37.65-15.66,14.79-7.04,27.28-14.09,37.26-20.2"/>
          <path class="cls-3" d="M430.26,71.53c-.05.54-.87,1.64-1.21,2.08-.44.59-.8,1.2-1.1,1.86-.55,1.28-.97,2.59-1.38,3.91l-.14.43c-.04.27.05.39.29.43l.47.03c.33,0,.63,0,.93,0,.2.02.6.17.74.34l.09.12c.04.06.09.12.14.17.14.34,0,.66-.33.8-.24.12-.47.13-.74.12-.27-.04-.52-.12-.8-.16l-.6-.04c-.32.04-.56.19-.72.49-.37.74-.41,1.48-.43,2.31-.03,1.1-.13,2.18-.25,3.3l-.23,2c-.25,1.91-.86,5.42-2.89,6.16-.35.08-.57-.04-.77-.33-.16-.27-.25-.55-.28-.87l-.05-1.15c.08-3.17,1.27-7.24,2.29-10.21l.14-.59v-.3l-.2-.16-.59.16c-.32.07-.63.14-.96.17-.09.02-.19.04-.29.03l-.17-.03c-.1-.01-.16,0-.24-.05-.26-.11-.35-.39-.21-.68.14-.26.32-.5.63-.6l.53-.15s.06-.01.13-.03l.45-.06c.25-.05.55-.08.79-.17l.55-.25c.29-.2.47-.43.59-.79.86-2.97,1.9-5.98,3.8-8.44l.19-.21c.2-.27.47-.43.79-.5.13-.03.22-.05.35-.04.46-.03.81.39.72.87h0Z"/>
          <path class="cls-2" d="M435.88,79.07c.09-.02.17.03.22.08.04.06.07.15.05.22v.06c.01.13,0,.23,0,.34-.21.95-.72,1.73-1.6,2.24-.06.04-.12.06-.17.11l-.22.05c-.06.01-.12.06-.19.04-.22.05-.41-.04-.55-.2-.04-.02-.04-.06-.08-.08l-.35-.62c-.16-.23-.3-.26-.52-.11-.25.2-.4.43-.58.67-.35.62-.63,1.28-.84,1.96-.4,1.26-.84,2.53-1.25,3.76-.1.29-.23.55-.33.84-.06.05-.07.12-.13.16l-.15.23s-.08.08-.14.13c-.17.14-.37.12-.49-.12-.04-.02-.05-.09-.07-.15l-.05-.22c-.12-.34-.08-.65-.07-.98.04-.67.18-1.37.36-2.02.36-1.29.74-2.54,1.1-3.82.16-.57.37-1.12.64-1.65.17-.27.31-.51.52-.75.08-.08.13-.16.25-.23l.25-.19c.09-.05.18-.08.24-.09.16,0,.29.1.37.28l.2.12.35-.18c.09-.05.2-.12.3-.14l.22-.05c.13,0,.23-.02.33,0,.18.06.34.16.43.3,0,.03.02.09.03.12l.2.42c.14.47.21.48.61.19.2-.12.37-.29.56-.43l.41-.23s.06-.04.12-.06h0Z"/>
          <path class="cls-2" d="M442.64,78.61c.19,2.93-1.27,6.62-3.72,8.3-.31.22-.71.35-1.11.35-.85.08-1.22-.59-1.4-1.28-.16-.6-.17-1.19-.16-1.8.06-2.23.47-4.51,1.96-6.27.29-.31.59-.59.94-.78.08-.06.18-.08.28-.07.09-.02.2-.02.3,0,.18.05.37,0,.56-.04l.78-.2c.67-.14,1.08.16,1.32.7.16.36.22.71.25,1.11h0ZM440.21,78.94l-.29.04-.49.3c-1.13,1.2-1.64,3.61-1.38,5.15l.18.42c.15.2.32.22.54.13.55-.34,1.06-1.21,1.27-1.8.43-.95.6-1.96.66-3.02.04-.24,0-.51-.03-.76-.02-.33-.15-.43-.45-.45h0Z"/>
          <path class="cls-3" d="M457.83,79.63c.07.01.08.04.13.1,0,.03.03.09.04.12l.04.23c0,.1.01.16,0,.23-.18,1.68-1.85,3.35-3.37,3.8-.22.06-.44.1-.72.08-.71,0-1.29-.47-1.54-1.1-.23-.67-.19-1.33-.12-2,.11-.78.33-1.52.51-2.28.16-.59.29-1.2.41-1.81.04-.31.04-.66.08-1l-.07-.35c-.07-.12-.22-.17-.33-.1-.17.12-.33.27-.46.4-.16.25-.36.48-.49.75-.39.76-.74,1.5-1.1,2.25-.41.8-.78,1.61-1.15,2.4-.25.51-.56.98-.95,1.36l-.35.31c-.19.16-.43.26-.65.19-.11-.04-.2-.11-.29-.19-.21-.24-.32-.51-.28-.83.06-.25.08-.53.17-.79.2-.57.41-1.13.61-1.7l.34-1.15c.04-.11.12-.3,0-.37-.15-.06-.27.12-.35.2-.27.35-.5.72-.69,1.11-.39.76-.69,1.56-.99,2.35-.3.7-.56,1.42-.83,2.11-.2.47-.38.89-.67,1.28l-.24.34s-.08.09-.13.14h-.03s-.08.1-.14.12c-.28.19-.55.09-.69-.27-.08-.28-.13-.57-.12-.85-.06-2.25,1.66-6.74,2.52-8.76.12-.27.23-.58.44-.81.02-.04.08-.09.13-.14l.14-.11c.11-.1.23-.14.39-.18.13,0,.27-.01.39.05.15.06.19.18.21.38,0,.13-.02.27.11.37l.28-.19.88-.7c.16-.15.35-.2.55-.3.34-.1.74.12.86.39l.07.22c.02.06.04.12.06.22l.03.33c.04.16,0,.34.15.39.14.03.26-.15.33-.27l.52-.76.61-1.02c.4-.69,1.11-1.61,1.92-1.85.09-.03.16-.04.23-.03l.3-.02c.1,0,.16-.01.24.03.33.07.55.38.62.73v.16s.03.06.04.09c.04,1.04.07,2.07-.17,3.09-.39,1.43-.7,2.91-.81,4.36v.74s.11.31.11.31c.14.23.43.31.65.15l.16-.15c.51-.45,1.04-.95,1.55-1.4l.36-.27c.08-.06.2-.13.29-.16.09-.03.19-.05.27-.01h0Z"/>
          <path class="cls-3" d="M478.57,53.42l.2.17c.31.27.52.57.69.92.86,2.34-.07,6.84-2.5,7.73-.43.16-.82.2-1.24.11-.58-.16-.94-.59-1.06-1.2-.12-.78.12-1.46.78-1.99.33-.23.69-.29,1.1-.2.33.05.59.27.7.57l.18.66c.03.16.11.2.24.08l.23-.22c.16-.23.28-.45.35-.72.2-.59.29-1.18.31-1.77.05-.88-.35-1.6-.95-2.2-.42-.39-.97-.57-1.55-.64l-.32-.02c-.27,0-.54.03-.78.12-.21.08-.42.19-.6.33-2.78,2.1-4.74,6.9-5.18,10.21-.12.98-.24,1.96-.34,2.93-.12,1.25.02,2.48.19,3.7l.07.56c.15.88.43,1.64,1.05,2.27.63.67,1.37.98,2.25.66,1.43-.53,3.11-2.26,4.03-3.39.15-.16.31-.29.46-.44l.21-.28c.26-.34.51-.67.78-.98.17-.2.39-.35.63-.44.46-.17.93.17.84.69-.03.29-.11.56-.22.81-.61,1.81-2.82,3.87-4.35,4.86-.69.47-1.42.84-2.22,1.1-.27.1-.61.23-.92.23-1.7.18-3.18-1.03-3.86-2.48-.43-.88-.65-1.76-.82-2.7-1.43-6.66.79-13.84,6.02-18.3.48-.39,1.03-.76,1.61-.98,1.31-.48,2.76-.57,4,.25h0Z"/>
          <path class="cls-2" d="M488.22,63.71v-.03c.04-.05.09-.08.16,0l.4.29c.31.26.36.55.18.94-.78,1.44-2.09,4.04-2.86,4.57-.22.16-.47.3-.75.31-.19.04-.29.15-.36.32-.34.8-1,2.02-1.62,2.62-.26.21-.54.39-.84.52-.72.29-1.31.22-1.72-.52-1.08-1.87-.63-5.31.08-7.18.22-.58.49-1.11.93-1.57.1-.11.08-.14-.03-.23-.14-.08-.23-.22-.22-.36.02-.04.02-.12.04-.16l.04-.16c0-.07.04-.16.09-.21.22-.4.59-.77,1.02-.94,1.29-.53,2.46.43,2.92,1.57.38,1.1.38,2.9.15,4.04l-.02.29.11.1.35-.35.21-.43c.17-.35,1.15-2.33,1.32-2.68l.32-.59s.07-.1.12-.15h0ZM484.5,64.81c-.06-.32-.16-.64-.34-.91-.24-.32-.61-.45-.99-.37l-.14.16c0,.27-.14.51-.27.78-.97,1.91-1.21,4.49-.71,6.56l.14.43c.13.23.33.29.53.1l.42-.52c.3-.47.53-1.02.73-1.56l-.04-.27c-.13-.16-.23-.29-.33-.46-.03-.06-.06-.15-.1-.24-.09-.31-.12-.65-.12-.97.04-.23.09-.46.21-.68.12-.15.21-.26.36-.32.15-.06.34-.03.51.04.14.08.16.04.2-.12.04-.58.04-1.1-.05-1.66h0Z"/>
          <path class="cls-2" d="M492.8,49.86c-.09.78-.28,1.64-.57,2.36-.39,1.15-.7,2.39-.96,3.59-.35,1.57-.7,3.13-1.01,4.7-.32,1.55-.54,3.27-.35,4.85l.09.46.13.3c.13.23.3.29.57.18l.51-.36c.38-.34,1.29-2,1.51-2.48.25-.49.48-1.02.73-1.51l.16-.28c.08-.21.22-.23.39-.07l.44.37c.12.12.17.24.2.37l.02.13c0,.07-.02.12-.03.19l-.06.1c-1.19,2.24-2.11,4.3-3.62,6.36-.17.25-.46.41-.73.52-.37.12-.67.08-.93-.2-.29-.26-.47-.61-.6-.98-1.01-3.24-.36-7.15.41-10.37.32-1.37.65-2.75.98-4.13.33-1.27.97-3.73,1.85-4.64.05-.05.09-.11.17-.18.05-.06.11-.08.2-.12.15-.06.29.02.37.2.12.2.18.42.14.65h0Z"/>
          <path class="cls-3" d="M499.25,58.1c.68,2.86-.12,6.74-2.25,8.81-.27.27-.64.47-1.04.54-.82.23-1.31-.37-1.6-1.02-.25-.56-.38-1.15-.47-1.75-.32-2.2-.3-4.53.87-6.51.23-.35.48-.68.79-.93.08-.07.16-.11.27-.12.09-.04.19-.05.29-.06.19.02.36-.06.54-.14l.74-.33c.63-.25,1.09-.03,1.42.46.22.33.34.67.44,1.05h0ZM496.91,58.83l-.28.09-.43.37c-.91,1.37-1.01,3.84-.49,5.31l.24.39c.18.17.35.16.55.04.48-.43.84-1.37.95-2,.26-1.01.26-2.04.14-3.09,0-.25-.08-.5-.16-.74-.08-.32-.22-.4-.52-.37h0Z"/>
          <path class="cls-2" d="M506.69,53.24c.09-.04.17,0,.23.04s.1.13.1.2l.03.06c.03.13.04.23.05.34,0,.97-.35,1.85-1.1,2.53-.04.06-.1.08-.15.14l-.2.1c-.06.03-.1.08-.18.08-.2.1-.41.05-.58-.08-.04-.02-.06-.04-.1-.06l-.47-.53c-.2-.19-.35-.2-.54,0-.21.24-.3.5-.42.78-.22.68-.35,1.38-.41,2.09-.13,1.32-.29,2.65-.43,3.94-.04.31-.12.59-.15.9-.04.06-.04.13-.09.19l-.09.26s-.06.1-.11.16c-.13.17-.34.2-.51,0-.04-.02-.07-.08-.1-.13l-.1-.2c-.18-.31-.22-.61-.27-.95-.1-.67-.12-1.38-.07-2.05.09-1.33.19-2.63.27-3.97.04-.59.13-1.17.28-1.75.11-.3.2-.56.35-.85.06-.1.09-.19.2-.27l.21-.24c.08-.07.16-.11.22-.14.16-.04.31.04.42.2l.22.08.31-.25c.08-.07.18-.16.27-.2l.2-.1c.13-.03.22-.07.32-.08.19.02.36.08.49.2.01.03.04.09.05.12l.28.37c.24.43.31.43.64.06.18-.16.3-.35.46-.54l.35-.31s.04-.06.1-.08h0Z"/>
          <path class="cls-2" d="M517.36,57.43c.01.61-.59,1.13-1.07,1.41-.06.03-.15.07-.2.1-1.25.48-2.64.3-3.42-.9-.2-.26-.35-.55-.52-.83l-.16-.25c-.09-.1-.2-.12-.27.03l-.39.81c-.2.54-.38,1.06-.6,1.57-.17.52-.45.98-.87,1.37-.17.16-.33.27-.59.33-.29.07-.57.03-.81-.17-.23-.17-.38-.39-.48-.67-1.04-2.38.16-8.99,2.33-10.07.32-.16.64-.17,1-.1.04.01.09.03.13.04h.12c.19.1.35.06.49-.09l.43-.43c.04-.06.1-.09.12-.13.23-.12.48-.06.63.16.12.16.2.33.2.55v.75c-.02.38-.08.77-.13,1.16-.09.91-.1,1.83-.02,2.73.08.61.24,1.14.61,1.65.39.49.98.89,1.65.77.26-.06.51-.15.77-.2.16-.04.35-.1.52-.12.33.01.54.2.55.52h0ZM511.55,52.02c-.2-.41-.49-.48-.81-.17l-.29.36c-.99,1.51-1.22,3.8-1.15,5.54l.07.29.13.19c.13.04.19-.06.23-.12l.22-.36c.74-1.64,1.17-3.33,1.57-5.06l.04-.42v-.25h-.01Z"/>
          <path class="cls-3" d="M523.39,36.57c.26,1.18-.03,2.44-.34,3.59-.23.89-.48,1.8-.71,2.69-.66,2.92-.17,6.33,1.06,9.01.31.72.77,1.32,1.33,1.83.22.21.42.44.52.71.14.33.1.68-.12.87-.16.12-.3.2-.5.23-.98.16-1.81-.66-2.3-1.43l-.12-.23c-.26-.49-.43-1.02-.63-1.54l-.22-.62-.11-.2c-.06-.12-.14-.26-.24-.24-.15,0-.17.16-.18.28l-.34,1.5c-.22,1.11-.89,3.11-1.9,3.76-.06.03-.12.06-.14.08l-.3.12c-.06.03-.12.06-.19.06-.51.08-.9-.11-1.23-.52-.3-.35-.5-.8-.63-1.25-.84-2.63-1.27-7.47,1.65-9.01.37-.2.75-.25,1.18-.19l.68.04c.23.02.3-.05.37-.27l.04-.42c-.03-.46-.02-.94-.05-1.41.01-.74-.02-1.49,0-2.23.02-1.48.66-5.41,2.15-6.2.43-.23.74-.06.96.23.15.21.24.46.29.76h0ZM519.66,47.83c-.24-.39-.69-.48-1.12-.25-1.49.79-1.49,4.38-1.23,5.79.06.26.14.55.28.81.21.33.5.39.78.1l.39-.5.46-.94c.41-1.02.75-2.12.87-3.21.04-.54,0-1.06-.3-1.53l-.14-.26h0Z"/>
          <path class="cls-2" d="M530.14,42.31c.93,2.79.46,6.73-1.48,8.96-.25.29-.6.52-.99.63-.8.3-1.33-.26-1.68-.88-.3-.54-.47-1.11-.62-1.7-.51-2.17-.69-4.48.3-6.56.2-.37.42-.72.71-.99.07-.08.16-.12.25-.14.08-.05.19-.07.29-.08.19,0,.36-.09.53-.19l.71-.39c.61-.31,1.08-.12,1.45.34.25.31.39.63.53,1.01h0ZM527.88,43.25l-.27.12-.4.41c-.79,1.45-.67,3.91-.03,5.33l.28.36c.2.15.37.13.55-.01.44-.47.72-1.44.78-2.07.17-1.02.08-2.05-.13-3.09-.03-.24-.12-.49-.22-.73-.1-.31-.25-.38-.55-.32h0Z"/>
          <path class="cls-2" d="M535.77,37.52c.02.29-.08.57-.2.82-.02.09-.09.16-.17.21-.11.07-.19.07-.26,0-.03-.06-.05-.08-.07-.11l-.15-.25c-.1-.24-.28-.29-.49-.13l-.27.38c-.45.9-.48,1.82-.05,2.74.13.22.29.43.47.62.36.35.74.69,1.1,1.05.28.29.58.6.77.94.59.89.66,1.83.2,2.78-.27.5-.64.9-1.09,1.16-.56.33-1.14.44-1.73.37-.68-.01-1.48-.22-1.9-.81-.06-.04-.07-.11-.1-.17l-.1-.24c-.03-.06-.08-.14-.09-.21,0-.33.18-.59.49-.7.34-.12.66-.16,1.01-.14h.57s.56-.06.56-.06c.47-.09.67-.65.59-.98-.06-.23-.16-.39-.3-.58-.37-.38-.76-.72-1.17-1.04-.34-.25-.66-.55-.93-.88-.65-.78-.84-1.69-.63-2.68.18-1.04.86-2,1.76-2.53.34-.2.68-.32,1.1-.38.26,0,.51.04.71.19.23.13.36.35.36.62h0Z"/>
        </g>
        <g>
          <path class="cls-1" d="M428.89,114.09c20.58-3.91,37.76-9.04,50.95-13.66,3.59-1.25,18.57-6.57,37.65-15.66,14.79-7.04,27.28-14.09,37.26-20.2"/>
          <path class="cls-3" d="M461.14,86.77c.25-.07.42.05.48.37.08.72-.08,1.45-.29,2.15-.65,2.18-1.33,4.37-2.01,6.53l-.27,1.02-.07.56c.01.16.13.23.28.16l.38-.21c.25-.18.5-.38.74-.59.31-.23.6-.38.97-.49.47-.11.92.04,1.24.42.21.24.32.51.37.8.11.47.11.95.05,1.44-.07.56-.18,1.13-.28,1.7-.29,1.77-.53,3.29-.23,5.1l.17,1.4c.05.29,0,.61-.08.9-.08.19-.17.35-.33.5-.21.2-.43.26-.68.2-.07-.01-.15-.06-.2-.11l-.24-.13c-.07-.01-.12-.07-.17-.12-.29-.29-.48-.6-.55-.95-.15-.5-.21-.95-.2-1.39-.03-1.37.08-2.76.22-4.11l.26-2.24c0-.23,0-.44,0-.68l-.03-.23c-.05-.19-.17-.25-.33-.11l-.28.32c-.43.6-.77,1.3-1.05,1.96-.52,1.23-.94,2.47-1.39,3.68l-.73,1.8c-.01.07-.04.11-.06.15l-.32.63c-.14.21-.3.36-.5.48-.32.16-.67.13-.91-.11-.05-.05-.1-.11-.12-.17l-.13-.23c-.11-.37-.19-.65-.2-1.06,0-.81.14-1.6.31-2.39.59-2.4,1.31-4.77,2.04-7.12.49-1.46.9-2.93,1.46-4.38.55-1.37,1.12-2.76,1.67-4.13.16-.39.38-.68.59-.98.04-.08.13-.14.18-.19h.03c.04-.09.13-.15.22-.17h0Z"/>
          <path class="cls-3" d="M469.48,97.54c.12-.17.22-.27.34-.31.16-.05.32.04.49.25.05.05.07.12.11.13.21.34.15.7-.05,1.03-.8,1.24-2.36,3.74-2.92,4.42l-.68.76c-.05.05-.13.11-.19.16l-.39.26s-.08.09-.13.11c-.47.22-.98.04-1.2-.47-.14-.33-.23-.64-.25-1.01-.07-.66-.04-1.31.03-1.95.19-1.89.41-3.87,1.41-5.55.11-.2.25-.39.41-.54.15-.18.35-.28.6-.26.16-.02.29.04.35.16.03.09.02.16.04.23v.23s0,.1,0,.17c-.07.33-.2.64-.31.95-.32.82-.57,1.64-.78,2.49-.12.82-.17,2.27-.04,3.01.07.22.2.31.31.14l.41-.54,2.44-3.9h0ZM468.24,89.74c.47-.01.71.22.71.63,0,.78-.34,1.4-1.05,1.86-.16.12-.35.18-.56.18s-.34-.1-.43-.27-.08-.35,0-.55c.05-.15.07-.33.02-.48-.14-.77.49-1.14,1.14-1.35.06-.02.13,0,.16-.02h0Z"/>
          <path class="cls-3" d="M479.84,93.96l.12.06c.19.14.2.27.1.48l-.12.25s-.04.08-.06.12l-.5.75c-.5.65-1.5,2.12-2,2.77l-.64.94c-.45.6-.65,2-.72,2.71-.24,2.92-.9,8.22-3.21,10.2-.02.04-.04.08-.1.1l-.55.39s-.05.05-.11.07c-.23.12-.49.17-.77.16-.59-.04-1.12-.47-1.31-1.13-.08-.32-.13-.67-.07-1,.25-1.28.7-2.47,1.22-3.67.22-.45.44-.9.59-1.37.2-.51.47-.94.68-1.43.42-.79.83-1.58,1.29-2.35.32-.55.5-1.16.75-1.73l.08-.47.12-1.37c0-.27-.04-.6-.04-.91l-.27.23-.38.71c-.35.77-.69,1.5-1.05,2.24-.16.33-.33.63-.54.94-.28.58-.81,1.13-1.43,1.34-.67.23-1.4.03-1.7-.66-.15-.33-.23-.67-.22-1.06-.14-2.93,2.46-8.58,5.16-9.5.52-.18,1.33-.21,1.6.38l.39.35c.26.15.37.39.37.7l-.03.52s0,.1,0,.17l-.1.41c-.17.71-.23,1.42-.22,2.16l.03,1.19c.05.16.16.18.27.08l.15-.16c.43-.66,1.3-2.12,1.73-2.75.21-.28.43-.56.68-.82.23-.22.53-.25.8-.07h0ZM474.36,93.19l-.24.08c-.13.12-.31.21-.43.35-1.19,1.23-2.08,2.83-2.57,4.44l-.24,1.01c-.05.26-.07.5-.03.73.11.31.26.36.51.2.2-.13.33-.35.47-.54l.64-1.14c.22-.45.41-.9.65-1.32.44-.9.86-1.8,1.3-2.7l.2-.62v-.31c-.01-.13-.14-.2-.27-.18h0ZM473.73,104.6l-.27.33c-.93,1.59-1.56,3.48-2.06,5.22l-.11.69c-.02.45.16.46.54.37l.24-.19c1.09-1.23,1.6-4.45,1.8-6.06v-.31c0-.1-.12-.13-.16-.05h0Z"/>
          <path class="cls-3" d="M484.01,78.8c.24-.09.42.01.51.33.13.71.02,1.45-.12,2.16-.48,2.23-.99,4.46-1.51,6.66l-.2,1.04-.03.57c.03.16.15.22.29.13l.36-.24c.24-.2.47-.42.69-.64.29-.25.57-.42.93-.56.47-.14.92-.04,1.26.32.23.23.36.49.43.77.14.47.18.94.16,1.43-.03.57-.09,1.14-.15,1.72-.16,1.79-.27,3.33.16,5.1l.28,1.38c.07.28.05.6,0,.9-.06.2-.14.36-.29.52-.2.21-.41.29-.67.25-.07,0-.16-.04-.21-.09l-.25-.12c-.07,0-.12-.06-.18-.11-.31-.27-.52-.56-.62-.91-.18-.48-.28-.94-.31-1.37-.13-1.37-.14-2.75-.1-4.12l.09-2.25c-.02-.23-.03-.44-.04-.67l-.05-.22c-.07-.18-.2-.24-.34-.08l-.25.34c-.39.63-.67,1.36-.9,2.04-.43,1.27-.74,2.53-1.11,3.78l-.59,1.85c0,.07-.03.12-.04.16l-.27.66c-.12.22-.27.38-.46.52-.31.19-.66.18-.91-.04-.05-.05-.11-.1-.13-.16l-.15-.22c-.14-.36-.24-.64-.28-1.04-.06-.81.02-1.6.13-2.41.4-2.44.94-4.86,1.5-7.25.37-1.49.67-2.99,1.12-4.47.44-1.41.91-2.84,1.35-4.25.13-.39.32-.71.51-1.02.04-.08.12-.15.17-.2h.03c.04-.1.12-.16.21-.2h0Z"/>
          <path class="cls-3" d="M493.78,76.12l.08.21c.05.05.08.11.07.18.07.25.07.53.04.79-.04.51-.17.98-.28,1.48-1.54,4.77-3.15,9.82-2.84,14.87.01.38.05.74.03,1.11.03.41.01.9-.15,1.28l-.09.21c-.05.05-.08.14-.13.19-.1.11-.26.14-.42.1-.08-.04-.14-.08-.19-.13l-.15-.12c-.05-.05-.11-.1-.16-.15-.22-.29-.35-.59-.51-.91-1.25-3.48.18-9.65,1.08-13.08.41-1.77,1.04-3.42,2-4.96.15-.23.79-1.09,1.03-1.18l.02-.04c.21-.08.47-.12.59.15h0Z"/>
          <path class="cls-2" d="M502.91,84.36l.34.14c.28.09.45.31.43.59-.15,1.72-1.6,4.7-2.56,5.84-.02.04-.08.07-.09.11l-.4.38c-.06.03-.08.07-.14.09-.53.33-1.03.23-1.41-.08-.32-.25-.56-.57-.65-.96-.05-.29-.13-.65-.22-.93-.06-.15-.17-.24-.27-.13l-.22.31c-.2.44-.4.87-.56,1.33-.19.47-.35.92-.63,1.36-.26.46-.67.82-1.18,1.03-.23.13-.49.17-.77.19-.32,0-.57-.18-.76-.45l-.12-.2-.04-.09c-.03-.06-.06-.15-.06-.22-.24-1.48-.1-2.98.28-4.42.41-1.62,1.52-4.23,3.13-4.92.45-.19.9-.2,1.37.09.11.09.17.07.25-.07l.41-.7s.05-.05.06-.1c.12-.12.3-.2.48-.2.37-.05.66.22.63.58-.03.26-.13.51-.2.78-.17.67-.42,1.34-.58,2.04-.27,1.03-.26,2.05-.14,3.09.02.31.14.58.32.85.19.27.42.31.67.07.2-.19.33-.39.44-.61.22-.55.45-1.1.67-1.66.29-.65.98-2.35,1.32-2.95l.05-.13s.08-.07.12-.05h0ZM498.03,86.04l.07-.84-.04-.34c-.06-.22-.28-.34-.54-.27-.78.33-1.46,1.71-1.75,2.43l-.55,1.85c-.1.6-.2,1.18-.23,1.79l.08.53c.05.12.16.14.31.08l.2-.12.31-.42c.69-1.03,2-3.42,2.13-4.7h0Z"/>
          <path class="cls-2" d="M511.69,80.32c.19-.05.38.04.44.27.08.25.04.48,0,.71-.18.62-.43,1.65-.63,2.24-.19.69-.39,1.42-.62,2.09-.29.77-.77,1.92-1.6,2.29-.47.21-.89.08-1.13-.38-.15-.25-.27-.52-.33-.81-.2-.91-.25-1.81-.2-2.72.05-.91-.04-.8,0-1.71l.02-.9c-.04-.16.01-.36-.19-.41-.16-.04-.22.14-.31.25-1.04,1.4-1.73,4.52-2.11,6.18-.2.73-.55,2.03-1.16,2.55-.21.16-.44.2-.64.08-.06-.04-.11-.09-.18-.17l-.11-.16c-.06-.04-.08-.11-.11-.16-.11-.23-.16-.5-.2-.76-.09-.99.39-6.54.92-7.74.02-.04.04-.06.06-.1l.23-.43s.03-.08.06-.1c.12-.2.35-.26.51-.2.21.08.4.18.46.39,0,.07,0,.15-.02.19l-.03.65c0,.07-.02.12-.04.16-.11.62-.23,1.45-.33,2.04-.08.29-.05.59,0,.89.08-.21.25-.47.33-.68.36-1.09.89-3.78,2.14-4.88.06-.03.12-.05.16-.11l.4-.22s.09-.04.15-.07c.46-.17.89,0,1.13.45.18.24.24.53.26.81.04.41,0,.78-.08,1.17-.2,1.22-.1,1.36-.1,2.61l.04.8.14.4c.11.23.28.23.4.03l.3-.53c.08-.21.13-.42.21-.63.21-.56.51-1.55.76-2.09.13-.27.22-.53.39-.78l.21-.24c.04-.06.09-.11.18-.15.04-.06.11-.08.16-.11h.01Z"/>
          <path class="cls-2" d="M519.9,66.26c.21,1.19-.12,2.43-.47,3.57-.26.88-.55,1.77-.81,2.66-.77,2.89-.41,6.32.72,9.04.28.73.72,1.34,1.26,1.88.21.22.4.46.5.73.12.34.08.68-.16.87-.16.12-.31.18-.51.21-.99.12-1.79-.72-2.24-1.51l-.11-.23c-.24-.5-.39-1.04-.57-1.56l-.2-.63-.1-.2c-.06-.12-.13-.26-.23-.25-.15,0-.18.16-.19.27l-.4,1.49c-.26,1.1-1,3.07-2.04,3.68-.06.03-.12.06-.15.07l-.31.11c-.06.03-.12.06-.19.05-.51.07-.9-.15-1.21-.57-.28-.37-.47-.82-.58-1.27-.74-2.66-.99-7.51,1.99-8.95.38-.18.76-.22,1.19-.14l.68.07c.23.03.31-.04.38-.26l.05-.42c0-.47.01-.94,0-1.41.04-.74.04-1.49.08-2.23.08-1.48.86-5.38,2.39-6.11.44-.21.74-.03.95.26.14.22.23.47.26.77h0ZM515.74,77.36c-.23-.39-.67-.5-1.11-.29-1.52.73-1.66,4.33-1.45,5.74.05.26.12.55.25.82.2.34.49.41.78.13l.41-.49.49-.92c.45-1.01.83-2.09.99-3.17.07-.54.03-1.06-.24-1.54l-.13-.26h0Z"/>
          <path class="cls-2" d="M526.59,73.45c.33.16.39.42.22.72l-1.12,2.02c0,.07-.04.13-.1.16-.31.45-.49.98-.5,1.53-.02,1.68.52,1.96-.46,3.54-.16.26-.39.45-.65.59-.38.19-.95.34-1.33.17-.35-.12-.58-.29-.7-.59-.09-.24-.13-.48-.11-.71-.04-.93.09-1.25.48-2.06l.24-.45c.21-.51.14-1.09-.3-1.45l-.89-.82c-.31-.24-.58-.51-.82-.82-.5-.69-.59-1.37-.33-2.08.26-.64.72-1.17,1.37-1.53l.67-.34c.3-.12.64-.18,1-.11.35.04.61.2.7.44.13.33-.08.63-.37.77l-.26.13c-.06.03-.1.01-.16.04l-.56.18c-1.02.3-1.05,1.52-.23,2.12l.34.23c.34.23.71.47,1.01.76.2.19.39.2.57.04l.49-.61c.27-.32.67-1.18,1.05-1.73.19-.27.48-.28.77-.13h0Z"/>
        </g>
      </g>
    </g>
  </g>
</svg>